<?xml version="1.0" encoding="UTF-8" standalone="no"?>
<!-- Created with Inkscape (http://www.inkscape.org/) -->

<svg
   xmlns:dc="http://purl.org/dc/elements/1.1/"
   xmlns:cc="http://creativecommons.org/ns#"
   xmlns:rdf="http://www.w3.org/1999/02/22-rdf-syntax-ns#"
   xmlns:svg="http://www.w3.org/2000/svg"
   xmlns="http://www.w3.org/2000/svg"
   version="1.1"
   width="607"
   height="237.35165"
   id="svg2">
  <defs
     id="defs4">
    <clipPath
       id="clipPath3155">
      <path
         d="m 450,450 1619.99,0 0,2610 -1619.99,0 0,-2610 z"
         id="path3157" />
    </clipPath>
    <clipPath
       id="clipPath3145">
      <path
         d="m 991.445,2535.21 c 0,-159.57 129.365,-288.94 288.955,-288.94 159.59,0 288.94,129.37 288.94,288.94 0,159.58 -129.35,288.95 -288.94,288.95 -159.59,0 -288.955,-129.37 -288.955,-288.95 z"
         id="path3147" />
    </clipPath>
  </defs>
  <metadata
     id="metadata7">
    <rdf:RDF>
      <cc:Work
         rdf:about="">
        <dc:format>image/svg+xml</dc:format>
        <dc:type
           rdf:resource="http://purl.org/dc/dcmitype/StillImage" />
        <dc:title></dc:title>
      </cc:Work>
    </rdf:RDF>
  </metadata>
  <g
     transform="translate(-32.829956,-488.22617)"
     id="layer1">
    <path
       d="M 0,237.71875 0,444 l 607,0 0,-206.28125 -607,0 z"
       transform="translate(32.829956,281.57782)"
       id="path3161"
       style="fill:#7bab2b;fill-opacity:1;fill-rule:nonzero;stroke:none" />
    <path
       d="m 326.34375,208.65625 c -0.43664,0.0127 -0.88637,0.0482 -1.3125,0.0937 -5.19101,0.5575 -9.34931,3.04 -14.5,3.71875 -3.31231,0.4375 -5.34107,-0.22125 -8.34375,-0.40625 -3.90898,-0.24125 -6.81064,1.47125 -9.9375,2.46875 -4.02669,1.285 -10.31718,2.52625 -15.09375,2.6875 -2.71564,0.0913 -5.31016,-0.7475 -8,-0.875 -2.66566,-0.1238 -5.8279,-0.10125 -8.5,0.0312 -5.41355,0.27125 -9.42458,0.36 -14.96875,-0.40625 -11.97527,-1.66 -24.32861,-2.13 -36.53125,-0.875 -4.44275,0.45875 -8.52299,1.94495 -13.0625,1.90625 -2.44311,-0.0213 -4.82203,-0.37625 -7.28125,-0.40625 -3.31393,-0.0437 -5.31752,0.66625 -8.46875,1.0625 -8.47379,1.06375 -16.50163,-0.93 -24.03125,-2.75 -7.14969,-1.73 -16.67926,-5.30875 -24.6875,-5.5 -5.64851,-0.135 -11.90456,2.9525 -16.90625,4.125 -4.8788,1.1425 -9.81466,2.20125 -15.125,2.46875 -3.76885,0.1925 -6.819,0.89625 -10.53125,1.28125 -7.15598,0.7425 -12.51466,3.62 -20.0625,3.84375 -2.264599,0.065 -17.636286,-1.86696 -23.65625,0.1875 C 27.840822,222.59898 33.429574,218.76802 0,223.59375 L 0,238.75 607,239.40625 607,229.5 c -13.33756,-3.44225 -18.31645,-1.30625 -28,-2.3125 l -26.78125,-5.40625 c -12.38458,-1.49164 -24.77167,-1.65375 -37.15625,0.65625 -17.21293,-0.39508 -23.27524,-2.82866 -30.375,-5.0625 -15.94673,-6.05343 -29.74037,-1.78661 -39.3125,-0.0312 -9.57213,1.75536 -14.91634,1.02514 -23.90625,0.71875 -12.33018,2.0709 -20.63473,0.11276 -29.28125,-1.5 L 370.03125,211.5 c -7.82602,-0.0625 -16.14792,2.83625 -23.65625,1.40625 -5.85531,-1.1168 -13.48172,-4.44099 -20.03125,-4.25 z"
       transform="translate(32.829956,281.57782)"
       id="path3159"
       style="fill:#7bab2b;fill-opacity:1;fill-rule:nonzero;stroke:none" />
  </g>
</svg>
