<?xml version="1.0" encoding="UTF-8" standalone="no"?>
<!-- Created with Inkscape (http://www.inkscape.org/) -->

<svg
   xmlns:dc="http://purl.org/dc/elements/1.1/"
   xmlns:cc="http://creativecommons.org/ns#"
   xmlns:rdf="http://www.w3.org/1999/02/22-rdf-syntax-ns#"
   xmlns:svg="http://www.w3.org/2000/svg"
   xmlns="http://www.w3.org/2000/svg"
   version="1.1"
   width="123.80004"
   height="93.011688"
   id="svg2"
   xml:space="preserve"><metadata
     id="metadata8"><rdf:RDF><cc:Work
         rdf:about=""><dc:format>image/svg+xml</dc:format><dc:type
           rdf:resource="http://purl.org/dc/dcmitype/StillImage" /><dc:title></dc:title></cc:Work></rdf:RDF></metadata><defs
     id="defs6"><clipPath
       id="clipPath24"><path
         d="m 991.445,2535.21 c 0,-159.57 129.365,-288.94 288.955,-288.94 159.59,0 288.94,129.37 288.94,288.94 0,159.58 -129.35,288.95 -288.94,288.95 -159.59,0 -288.955,-129.37 -288.955,-288.95 z"
         id="path26" /></clipPath><clipPath
       id="clipPath34"><path
         d="m 450,450 1619.99,0 0,2610 -1619.99,0 0,-2610 z"
         id="path36" /></clipPath><filter
       x="0"
       y="0"
       width="1"
       height="1"
       color-interpolation-filters="sRGB"
       id="filter3116"><feColorMatrix
         id="feColorMatrix3118"
         result="result2"
         type="saturate"
         in="SourceGraphic"
         values="1" /><feFlood
         id="feFlood3120"
         result="result1"
         flood-opacity="1"
         flood-color="rgb(254,102,0)" /><feBlend
         in2="result2"
         mode="multiply"
         in="result1"
         result="result3"
         id="feBlend3122" /><feComposite
         in2="SourceGraphic"
         operator="in"
         result="result4"
         id="feComposite3124" /></filter></defs><g
     transform="matrix(1.25,0,0,-1.25,-93.25375,347.90414)"
     id="g10"><g
       id="g3126"><g
         transform="matrix(0.1,0,0,0.1,-1.518956,-2.1656854)"
         clip-path="url(#clipPath24)"
         id="g22"><path
           d="m 1410.03,2561.15 0.53,-0.46 0.74,-0.17 1.22,-1.51 0.57,-1.09 0.81,-1.1 0.88,-2.02 0.85,-1.85 -0.46,-0.58 -0.81,-0.06 -0.11,-1.26 -0.87,-0.86 -1.09,0 -0.13,1.26 c 0,0 -0.46,1.1 -0.51,1.27 -0.06,0.18 0,0.86 0,0.86 l -0.7,0.18 -0.67,1.33 -0.81,0.76 -1,1.08 -0.57,0.76 -0.11,0.63 0.34,-0.46 1.04,0.06 0.64,1.04 -0.07,1.62 0.29,0.57 z m -0.63,0.34 -0.86,0.3 -0.86,0.28 -0.88,0.17 0.05,0.57 -0.45,0.3 -0.05,0.64 -0.47,0.17 -0.57,1.21 0.11,1.1 0.65,0.57 0.33,0.52 -0.57,0.46 -0.05,0.58 0.62,-0.11 1.09,-1.45 0.86,-1.2 0,-1.16 0.75,-1.51 0,-0.62 0.3,-0.82 z m -11.02,-15.29 0.93,0.69 1.09,-0.23 0.05,-0.68 -0.51,-0.07 -0.58,0.12 -0.46,-0.18 -0.52,0.35 z m -2.71,-4.61 0.23,1.61 0.85,1.33 0.76,-0.35 0.87,0.12 0.23,-1.39 -0.39,-1.21 -0.48,0 -0.8,-0.23 -0.52,0.69 -0.23,-0.63 -0.52,0.06 z m -0.46,-5.14 -0.53,-0.35 -0.33,0.29 -0.18,0.47 -0.46,0 -0.12,0.63 0.52,0.75 0.47,-0.18 -0.06,-1.04 0.06,-0.46 0.63,-0.11 z m -316.43,-62.95 -1.01,0.14 -1.02,0.58 1.1,-0.11 0.93,-0.19 0,-0.42 z m 17.1,-14.13 c -0.1,0.06 0.25,0.1 0.25,0.1 l 0.4,-0.58 -0.35,-0.11 c 0,0 -0.19,0.55 -0.3,0.59 z m 3.65,-5.44 c -0.05,0.26 -0.19,0.87 -0.19,0.87 l -0.43,0.3 -0.32,0.74 0.35,0 0.16,-0.55 0.54,-0.44 c 0,0 -0.1,-0.65 -0.11,-0.92 z m 5.46,-8.98 0.41,-0.29 -0.06,-0.44 -0.54,0.28 0.19,0.45 z m 3.56,-0.24 -0.6,-0.25 -0.38,0.25 0,0.39 0.98,-0.39 z m 0.59,0.29 0.77,-0.5 0,-0.39 0.6,-0.24 0.59,-0.85 -0.24,-0.82 -0.89,1.22 -0.83,0.6 -0.09,0.58 0.09,0.4 z m -3.59,4.05 0.63,-0.35 0.84,-0.7 -0.15,-0.38 -0.64,0.59 -0.93,0.35 0.25,0.49 z m -2.67,1.71 -0.46,0.6 -1,0.78 0.1,0.79 0.42,-0.84 1.03,-0.5 -0.09,-0.83 z m -0.79,-0.26 0.6,-0.28 c 0.08,-0.06 -0.3,-0.31 -0.3,-0.31 l -1.62,-0.17 0.19,0.38 1.13,0.38 z m -0.05,8.48 0.19,-0.3 -0.42,-0.49 -0.2,0.05 0.43,0.74 z m -3.24,2.42 0.49,-0.35 0,-0.59 -0.79,0.05 0.04,0.31 0.4,0.08 -0.14,0.5 z m -0.64,1.98 0.2,0.04 0.55,-0.59 -0.37,-0.4 -0.38,0.95 z m -2.42,5.55 0.48,-0.38 0,-0.45 -0.53,0.5 0.05,0.33 z m 1.09,-2.26 c 0,0 0.14,-0.16 0.24,-0.16 0.09,0 0.15,-0.73 0.15,-0.73 l -0.45,-0.99 -0.11,-0.87 -0.23,0.93 0.19,0.23 0.29,0.84 -0.08,0.75 z m -4.34,1.54 0.7,-0.36 -0.2,-0.3 -0.75,0.35 0.25,0.31 z m -0.54,3.87 0.06,-0.33 -0.1,-0.6 0.04,-0.68 -0.39,0 -0.1,1.07 0.49,0.54 z m 201.57,252.25 0.75,-0.4 -0.35,-0.81 -0.92,0.18 0.52,1.03 z m 2.72,-1.67 0.45,-0.69 -0.81,0.12 -0.69,0.34 1.05,0.23 z m -3.58,4.04 1.54,0.06 0.7,-0.63 -1.26,-0.58 -0.93,0.17 -0.05,0.98 z m 2.65,-1.33 1.09,-0.35 0,-0.63 0.7,-0.69 -1.79,0.05 0.05,0.53 -0.8,0.4 0.75,0.69 z m 1.96,-4.32 0.63,0.06 0.12,-0.53 -0.57,-0.22 -0.64,0 -0.17,0.33 0.63,0.36 z m -2.08,-0.3 0.93,-0.63 0.93,-0.4 0.22,-0.58 -1.27,-0.18 -1.1,0.41 -0.12,-0.64 -0.97,0.99 0.06,0.64 -0.7,0.62 0.82,0.7 0.74,-0.23 0.46,-0.7 z m -11.72,25.26 1.11,-0.32 0.89,-0.26 1.55,-1.07 -0.28,-0.72 -1.18,-0.67 0.89,-0.24 0.93,-0.44 -1.11,-0.93 -2.02,-0.54 -2.39,-0.5 -1.46,0.06 -1.63,0.26 0.22,0.86 0.51,0.84 0.99,-0.04 0.13,0.65 1.19,0.55 -1.27,0.37 -0.23,0.56 0.83,0.71 1.15,0.2 1.18,0.67 z m -2.58,3.11 0.85,-0.48 0.94,-1.14 1.93,-0.86 -1.97,-0.03 -1.73,-0.35 -1.09,0.09 -0.55,1.76 0.43,0.8 1.19,0.21 z m 17.29,-46.57 0.48,0 0.87,-0.46 0.14,0.4 1.29,-0.51 0.16,0.72 0.78,0 1.04,-1.04 0.58,-0.82 -0.08,-0.96 -0.85,0.94 -0.57,0 0.4,-1.16 -0.75,0.26 -1.08,0.99 c 0,0 -1.53,0.37 -1.62,0.43 -0.08,0.06 -0.79,1.21 -0.79,1.21 z m 5.02,-7.74 -1.71,0 -0.55,0.35 c 0,0 -0.69,-0.11 -0.82,-0.11 -0.11,0 -1.75,0.35 -1.75,0.35 l -0.55,0.4 1.01,0.52 -0.93,0.08 0.09,0.53 0.32,0.78 -0.57,-0.09 -0.41,-0.72 -0.25,-0.55 -1.23,0.37 0.27,0.9 -0.21,0.8 -0.08,0.43 0.66,0.41 -0.83,0.23 -0.47,-0.08 0,-0.58 -1.17,0.46 -0.1,-0.49 1.12,-0.8 0.15,-0.87 -0.29,-0.29 -2.27,0.57 c 0,0 -2.28,0.61 -2.34,0.73 -0.06,0.11 -2.94,2.02 -2.94,2.02 l 0.38,0.37 1.2,-0.31 1.53,0 c 0,0 -0.9,0.75 -1.09,0.75 -0.2,0 -1.39,0.2 -1.39,0.2 l -0.35,0.43 1.54,1.21 c 0,0 1.06,-1.27 1.16,-1.27 0.07,0 2.77,-0.77 2.77,-0.77 l -2.92,1.3 -0.68,1.08 1.07,0.21 1.66,-0.12 -0.61,0.49 -1.59,0.04 -1.1,0.97 0.38,0.81 1.5,-0.2 -1.41,0.9 1.09,0.69 1.74,-0.21 -1.62,0.93 1.06,0.57 0.73,-0.34 1.05,0.55 1.37,-1.21 1.46,-1.47 0.71,-1.02 -2.17,0 -0.45,-0.79 0.45,-0.82 1.79,-0.55 1.15,0.02 -0.77,-0.97 0.75,-0.84 1.3,-0.63 c 0,0 1.06,-2.45 1.23,-2.57 l 2.06,-1.42 0.87,-1.36 z m 37.6,24.74 0.85,-0.41 0.46,-0.63 -0.68,-1.67 -0.28,-1.11 -0.88,-0.05 -1.38,-0.46 -1.22,-0.63 -2.01,0.63 -2.42,1.27 -3.23,1.26 -5.89,2.72 -5.6,2.36 -2.54,1.85 -1.61,2.25 -2.48,1.68 -2.61,1.32 0.05,0.98 0.82,0.59 1.74,-0.07 2.18,-0.98 2.14,-2.02 2.55,-2.07 7.66,-4.27 4.39,-2.37 3.39,-1.27 4.57,0.06 2.03,1.04 z m -18.27,-93.75 0.37,-0.66 -0.28,-0.5 -0.5,0.37 -0.16,0.63 0.57,0.16 z m -0.36,0.53 -0.47,-0.24 c 0,0 -0.5,0.79 -0.57,0.84 -0.08,0.03 -1.29,0.24 -1.29,0.24 l 0.05,1.25 1.29,0.94 c 0,0 0.65,-0.44 0.74,-0.44 0.09,0 0.04,-0.75 0.04,-0.75 l 0.5,-1.24 -0.29,-0.6 z m -40.19,-119.94 0.51,-0.49 -0.51,-0.26 -0.4,0.17 0.4,0.58 z m 12.43,-3.69 -0.09,-0.46 -1.32,0 -1.22,0.22 -0.43,0.47 0.82,0.17 0.62,-0.33 1.62,-0.07 z m 1.13,1.01 -0.09,-0.33 -1.04,-0.03 -1.25,0 c -0.13,0 0,0.36 0,0.36 l 0.97,0.19 1.41,-0.19 z m 2.86,0.95 -0.34,-0.49 -0.9,-0.09 -0.26,0.34 0.46,0.29 1.04,-0.05 z m 7.65,-3.78 -1.02,-0.73 -1.11,-0.13 -0.57,0.51 c 0,0 -0.09,0.54 0,0.54 l 1.3,-0.05 1.08,0.31 0.32,-0.45 z m 1.34,-3.52 0.19,-0.53 -0.83,0 -0.43,0.2 0.08,0.3 0.99,0.03 z m 145.23,-112.21 0.34,-0.28 -0.23,-0.99 -0.87,-0.57 -0.1,0.97 0.86,0.87 z m 6.66,16.28 0.78,0 c 0,0 0.43,-0.2 0.53,-0.2 0.1,-0.05 -0.25,-1.51 -0.25,-1.51 l -0.92,-1.37 -1.35,-0.13 0.8,1.55 0.41,1.66 z m -140.46,0.49 0.32,-0.22 -0.38,-0.52 -0.4,0.43 c 0,0 0.35,0.27 0.46,0.31 z m 4.22,-0.54 0.16,-0.23 -0.46,-0.09 -0.28,0.32 0.58,0 z m -1.28,0.15 c 0,0 0.39,-0.47 0.46,-0.47 0.09,0 -0.39,-0.26 -0.39,-0.26 l -0.5,0.38 0.43,0.35 z m -3.24,1.65 0.3,-0.28 -0.87,-0.91 -0.64,-0.13 -0.12,0.61 1.33,0.71 z m 4.22,-9.9 -0.35,-0.3 -0.79,0.08 -0.07,0.46 0.78,0.62 0.46,-0.11 -0.03,-0.75 z m 3.94,1.53 -0.88,-0.86 -0.86,0.56 -0.05,0.58 -0.13,0.66 0.41,0.16 1.51,-1.1 z m 1.14,1.52 0.51,-0.63 -0.91,-0.38 -0.15,0.7 c 0,0 0.47,0.31 0.55,0.31 z m 0.78,6.39 -0.27,-0.44 -0.43,0.66 0.27,0.58 0.43,-0.8 z m 0.7,-2.04 0.12,-0.74 -0.63,-0.39 -0.66,0.3 0.23,0.83 0.94,0 z m 140.92,191.45 0.18,-1.61 0.46,0.11 0.23,-0.34 -0.18,-0.92 0,-1.33 -0.05,-1.04 0.23,-0.35 -0.53,-0.4 -0.86,-1.04 -0.47,0.29 -0.1,0.69 -0.58,0.46 0,0.52 0.46,0.7 -0.17,0.57 0.64,1.27 -0.35,0.17 0.23,0.52 0.41,0 0.45,1.73 z m -119.21,114.84 -1.04,0.06 -1.64,0.74 -0.96,1.11 0.53,0.69 1.25,0.1 0.98,-0.74 0.81,-1.04 0.07,-0.92 z m 19.14,-55.74 c 0,0 1.09,-1.27 1.17,-1.32 0.09,-0.05 -0.44,-0.75 -0.44,-0.75 l -1.58,0.61 -0.05,1.07 0.9,0.39 z m 7.46,-9.81 0.31,-1.36 1.02,-0.97 0.47,-1.77 -0.44,-0.21 -1.66,1.46 -0.35,1.14 0.26,1.58 0.39,0.13 z m -204.33,-113.05 -1.97,0.35 1.5,0.46 0.47,-0.81 z m -23.29,82.3 0,-0.8 0.66,-0.52 -0.5,-0.63 -0.13,-0.26 -0.3,-0.3 -0.99,-0.27 0.07,0.57 -1.33,-0.51 -0.07,0.23 -0.18,0.21 -0.87,0.28 0.25,0.1 1.22,0.79 -0.34,0.39 -0.37,0.07 0.19,0.45 2.69,0.2 z m 80.75,85.05 1.61,-0.58 1.04,1.79 0.8,0.98 2.68,0.23 1.9,0.11 -0.47,-1.85 1.04,1.74 0.46,-1.09 0.29,0.92 1.1,-1.33 -0.29,1.67 0.58,0.4 1.61,-1.62 2.02,-1.49 -2.2,4.16 3.99,1.26 1.15,-0.86 -0.45,0.93 4.2,1.21 4.05,-0.41 1.62,-1.73 1.95,-0.11 -0.11,-1.16 -1.16,-1.04 -3.29,-0.46 -1.62,-2.19 2.09,1.32 2.64,0.46 0.18,-1.1 0.69,1.45 1.04,0.29 0.58,-0.64 1.55,-0.63 -0.11,-2.25 0.93,1.96 1.55,0.46 -0.3,1.27 1.52,0.76 2.07,-0.82 -0.86,-3.46 -1.16,-0.93 1.39,0.12 0.4,-1.15 -1.62,-0.69 -1.21,-0.93 1.85,-1.04 1.97,-2.53 -1.8,-0.58 0.52,-2.42 2.08,-0.29 0.86,-1.05 1.91,-1.39 0.17,-1.9 -2.31,0 -0.28,-1.38 -1.38,0.47 0.97,-2.31 2.37,0.69 0.75,-1.38 1.43,-2.08 -2.7,0.29 2.07,-1.27 1.96,-1.96 -0.22,-1.04 -2.66,-1.5 2.78,-0.24 0.1,-1.26 -1.96,-1.61 -3.23,1.26 -1.38,-1.73 1.95,0.58 3.47,-1.51 1.05,-2.99 -3.69,1.37 -1.05,1.39 -1.5,-1.39 1.38,0.59 0.93,-1.5 3.34,-1.84 0.93,-1.16 0.92,0.12 1.62,-3.71 -0.82,-0.58 -2.41,-0.1 -1.63,2.65 -1.49,0 -1.39,-1.62 1.17,0.58 1.15,-1.16 -1.06,-1.38 -2.87,-1.84 1.85,0.34 2.19,1.27 2.43,-1.03 1.73,0.69 1.26,0.11 -4.62,-6.69 -5.88,-3.7 -3.24,-0.46 -1.84,1.04 0.8,-1.04 -3.22,-6.22 -2.54,-2.79 -2.43,-2.42 -4.26,-0.46 -3.47,-2.88 0.92,-2.31 -1.04,-0.8 -0.11,-2.43 -3.92,-5.07 0.47,-2.66 -2.21,-6.58 -1.15,-2.77 -2.53,0.47 -2.55,1.84 -1.38,2.2 1.04,1.38 -3.81,-1.38 -2.87,2.18 -1.86,4.05 -2.19,5.54 -0.7,3.92 1.62,0.68 0.69,1.28 0.82,0.69 -1.97,0 -1.27,-1.72 -0.57,0.57 0.46,3.8 -1.73,4.17 0.91,2.88 1.51,0.69 -1.51,1.15 1.62,4.28 1.97,1.84 2.88,-0.46 1.5,5.42 -2.18,1.04 -3.13,2.19 0,1.15 2.08,-0.33 1.61,-1.05 1.39,-0.23 -0.68,1.28 1.03,0.79 -1.62,0.24 1.73,0.8 -2.41,0.35 2.3,0.81 -2.08,0.11 0.58,1.28 -1.16,0.12 -0.57,-1.28 -1.62,-0.23 -1.27,1.16 1.15,1.84 1.27,3.92 0.81,5.54 -1.96,3.7 0.58,1.16 -3.82,3.8 -5.3,1.04 -1.16,2.08 0.81,0.22 -0.69,1.62 0,1.27 2.19,-0.81 3.24,0.12 0,1.15 -1.62,-0.22 -0.82,0.92 -2.07,2.77 1.63,1.38 4.61,0.69 1.73,-0.69 2.42,1.85 1.5,0.92 -2.54,0.69 0,0.92 4.5,2.09 z m -30.29,0.29 -0.23,-0.41 -1.91,0.12 -0.52,0.92 0.86,0.75 1.8,-1.38 z m 1.79,5.08 0,-2.54 -1.67,-0.93 -1.16,0 -0.76,0.69 2.08,2.37 1.51,0.41 z m -2.95,-9.19 1.1,-0.22 2.48,-0.18 0.97,2.2 1.28,-0.69 0.35,-1.46 0.69,2.32 1.27,1.44 -1.16,0 -2.66,0.41 -0.33,1.44 1.38,2.07 1.67,0.18 -0.58,1.9 1.85,2.25 0.63,-0.64 0.3,0.87 1.61,0.47 0.64,-0.87 0.06,0.98 1.2,0.69 0.65,-0.63 1.27,0.98 0.57,-0.51 -1.62,-2.83 0.4,-0.41 -0.45,-1.97 -1.04,-1.21 -0.34,-2.01 -1.69,0 -1.56,-0.87 2.08,0.24 -0.34,-0.76 1.55,-1.1 -0.63,1.1 1.38,1.79 -0.04,1.44 1.54,1.32 1.16,-0.92 0.34,-1.32 0.64,0.92 2.54,-0.34 1.73,0.51 1.73,1.04 -2.13,-0.52 -3.35,0.46 -1.79,0.87 0,2.42 1.39,1.27 -0.35,1.15 2.6,0.35 1.15,-1.04 2.42,0.87 0.59,-1.62 2.3,1.56 2.54,-0.86 0.69,0.41 1.9,-0.87 4.04,-2.37 0.11,-1.15 0.82,-1.1 -2.02,-1.38 -2.54,-0.35 1.09,-0.69 -4.26,-1.45 -4.8,-3 -3.46,-0.11 -0.86,-1.27 -2.89,-1.9 -5.36,-1.86 -0.35,-0.63 0,-1.5 -2.83,-1.03 -2.18,0.41 -0.24,0.92 -2.76,1.89 -2.89,2.13 -0.18,1.11 0.05,1.09 c 0,0 0.77,0.17 0.93,0.17 z m -2.88,0.81 1.38,-0.69 -0.06,-1.1 -0.87,0.06 1.05,-0.75 -0.18,-0.86 -1.21,0.11 -0.69,-1.16 0.46,-1.15 0.98,-1.61 3,-0.42 1.85,-0.96 1.22,-1.33 -0.47,-1.91 -2.53,-1.73 -2.03,0.75 -0.99,0.7 0.47,1.03 -1.15,-0.56 -1.62,0.51 -2.99,1.96 0.1,0.63 0.87,0.53 -1.09,0 -0.93,-0.12 -0.52,1.21 0.7,0.23 -1.39,0.29 0,0.34 1.15,0.92 0.35,0.64 1.16,0.86 0.8,0 1.22,0.93 -0.11,0.92 0.62,0.87 -1.33,1.04 0.71,2.19 0.97,0.69 0.98,-0.29 -0.18,-0.46 0.75,-1.32 -0.45,-0.99 z m 3.57,13.1 1.1,0.24 0.8,-1.05 -0.34,-0.69 -0.58,-0.29 0.42,-0.46 -0.42,-0.86 -0.34,0 0.11,-0.76 -0.68,-0.69 -0.98,-0.23 -0.82,-1.56 -1.26,0.06 -0.06,0.53 1.03,1.26 -0.23,1.21 -0.8,0.75 0.34,0.87 0.75,-0.06 0.23,-0.29 1.1,0.18 0.58,1.2 0.05,0.64 z m -6.23,-2.71 0.18,-0.46 -2.08,-2.08 -0.22,0.41 0.46,1.33 1.66,0.8 z m 0.18,5.89 1.55,-0.87 1.34,-0.23 -1.22,-1.16 -0.92,-0.05 0.06,0.58 -0.92,1.03 0.11,0.7 z m -0.05,-2.6 -1.63,-0.23 0,-0.58 -1.5,-0.06 -0.87,1.04 0.76,1.04 1.61,0.12 1.63,-1.33 z m -1.68,2.65 -0.46,-0.86 -0.76,-0.12 -0.23,0.35 0.47,0.63 0.98,0 z m -0.74,-17.91 -0.24,-0.9 -0.79,-1.07 -1.93,-1.32 -1.06,1.15 0.39,1.76 2.29,0.66 1.34,-0.28 z m 1.43,4.96 -0.09,-0.93 -2.74,-1.64 -0.61,-0.08 -0.39,-0.87 -0.88,0.08 -0.8,-0.83 -0.79,0 -1.18,1.24 0.02,0.61 0.68,0.28 0.21,0.41 1.15,0.11 -1.5,1.68 0.84,0.69 0,0.89 1.17,1.24 0.67,-0.08 0.69,1.01 0.67,-0.09 -0.09,-0.69 -0.84,-1.21 -1.33,-1.21 -0.14,-0.72 2.04,1.73 0.78,-0.15 -0.31,-0.78 -1.21,-1.62 1.17,0.64 0.96,1.39 0.92,-0.06 -0.14,-1.1 0.49,0.26 0.58,-0.2 z m -8.63,1.07 0.31,-0.38 -0.74,-0.86 -0.9,0.17 0.12,0.64 1.21,0.43 z m 1.17,9.27 -0.74,-0.43 -0.7,-0.38 0.86,-0.48 -0.81,-0.92 -0.64,-0.16 0.11,-0.58 -0.73,-0.81 -1.09,-0.27 0.34,-0.8 0.21,-1 0.75,0 0.89,0.78 0.32,0.59 0.76,0 0.1,0.7 0.75,0.69 0.9,-0.05 1.74,0.17 0.27,-0.49 -2.01,-1.02 -0.04,-0.54 -1.07,-0.21 -0.7,-1.38 1.18,0.27 0.27,-0.75 -1.95,-1.18 -2.1,-0.74 -1.84,1.07 0.11,0.91 -1.49,0.8 -2.05,0.16 -1.27,1.32 0.46,1.45 0.97,0.05 0.64,1.02 0,1.24 0.55,1.5 1.34,-0.1 1.5,0.26 1.3,0.28 0.83,-0.28 0.91,0.05 1.17,-0.74 z m 2.74,3.2 0.86,0.27 0.49,-0.33 -1.07,-1.02 -0.7,0.28 -0.8,-0.79 -1.24,0.05 -0.49,1 -1.12,0.16 -1.28,-0.21 -0.52,0.48 -1.19,-0.32 -0.75,0.26 1.03,1.02 -0.54,0.27 0.09,0.96 1.67,0.33 0.54,-0.59 1.11,0.05 0.48,-0.48 2.84,-0.17 0.59,-0.31 0,-0.91 z m -17.82,-7.99 -3.7,1.51 -2.62,-0.27 -0.87,0.7 -2.97,-0.81 -1.02,0.65 0.48,0.8 -1.01,0 -1.13,0.65 1.66,0.97 1.55,1.07 -0.32,0.54 1.74,1.59 1.46,-0.06 9.1,2.15 1.57,-2.36 -1.24,-1.7 -0.22,-1.07 0.65,-0.12 0.31,-0.84 -2.41,-3.13 -1.01,-0.27 z m -8.89,-24.27 -0.38,-0.59 -1.86,-0.49 0,0.53 1.08,0.97 1.16,-0.42 z m 15.24,16.36 -0.59,-1 -1.09,-0.75 -2.09,-0.05 -3.5,-2.53 -1.1,-1.51 -2.73,-1.23 -0.88,-1.58 0.49,-0.7 -0.86,-2.53 0.27,-0.87 -1.77,-1.18 -0.81,1.67 -1.68,-0.53 0.83,-0.76 -0.83,-0.75 0,-0.72 -2.48,0.13 -1.55,2.8 0.74,0.85 -0.37,1.07 0.91,1.4 -2.1,-0.58 -1.29,0.96 -2.01,0.27 -3.07,3.74 2.64,2.03 0.16,1.45 -0.42,0.9 1.55,2.73 1.91,0.86 2.09,-3 0.75,-1.49 0.76,-0.1 0.26,2.33 -1.92,1.62 0,1.61 1.39,1.82 1.29,-0.38 1.8,-1.33 -1.21,2.09 1.27,1.42 1.87,0.54 1.07,-0.54 0.71,0.81 1.92,-0.17 3.8,-1.79 -1.62,-0.96 -2.01,-0.6 0.65,-0.59 1.8,0.43 -0.54,-2.31 -0.78,-0.81 0.71,-0.37 1.52,1.29 0.48,-0.32 -1.39,-2.37 -3.64,-2.55 0.45,-0.43 1.66,0.65 4.32,3.2 0.97,-0.06 0.26,-0.96 -0.21,-0.95 1.29,1.38 1.16,0.42 0.79,-1.12 z m -0.53,-3.79 -1.05,-1.78 0.49,-0.53 2.02,1.18 -0.44,0.32 0.7,1.18 0.75,-0.05 0.87,0.21 0.53,-0.27 1.02,0.11 -0.32,-0.7 1.29,0.27 0.96,-0.8 -0.86,-1.89 -1.56,-0.26 -0.32,-1.21 -2.04,-1.67 -2.82,-2.15 -1.82,-0.1 -0.54,0.91 -0.64,-0.54 -1.3,-0.27 -0.2,0.65 1,1.46 1.19,2.27 -0.27,1.07 1.18,2.11 1.67,0.58 0.51,-0.1 z m 20.53,-13.38 3.16,-1.96 -0.1,-3.53 -4.22,1.62 -0.17,1.1 0.58,0.46 -0.47,0.7 1.22,1.61 z m -12.7,-18.88 0.4,-0.8 -1.02,0 -0.07,0.35 0.69,0.45 z m 4.16,1.74 0.63,-0.76 -1.44,-1.2 -0.4,0.52 1.21,1.44 z m -0.05,1.9 -0.07,-0.75 -1.5,0.23 0.17,0.35 1.4,0.17 z m -1.23,-1.5 -3.92,-1.55 -0.28,0.57 3,1.68 1.2,-0.7 z m 2.48,-4.44 -0.28,-1.85 -0.69,0.28 0.11,1.17 0.86,0.4 z m -1.08,-3.17 0.8,0.05 1.21,-1.03 -0.64,-1.34 -1.49,0.99 c 0,0 0.12,1.16 0.12,1.33 z m 0.17,1.15 -1.33,-1.21 -0.7,-1.39 -2.07,-0.63 c 0,0 -1.67,0.46 -1.67,0.75 0,0.29 0.28,1.9 0.28,1.9 l 2.72,1.85 1.89,-0.18 0.88,-1.09 z m 3.64,-32.38 0.16,-1.78 -0.92,-0.98 -0.69,1.62 1.45,1.14 z m -7.63,5.66 0.11,0.7 -0.28,0.75 -0.69,0.11 -0.42,0.64 -0.57,0 0.57,-1.5 -1.32,0.16 0.17,1.74 0.36,0.69 -0.64,0 -0.35,1.96 1.45,0.06 -0.12,1.27 -1.9,0.53 0.45,2.3 -0.39,1.44 -1.1,-0.06 -0.11,0.93 -0.82,-0.41 -0.97,1.51 -2.26,-0.64 -1.73,0.98 -0.75,1.56 1.39,1.91 1.96,0.11 0.52,1.33 2.42,-2.2 2.83,-0.35 1.33,-0.74 0.17,1.26 -0.63,0.75 0.46,1.68 3.97,1.1 1.11,1.03 1.44,0.64 0.29,2.08 0.75,1.72 -0.87,1.46 -0.28,1.37 0.57,1.44 -0.93,0.35 -2.23,-0.46 0.69,1.73 2.12,-0.34 -1.32,2.59 1.04,0.81 -0.87,0.75 0.8,1.21 -0.74,0.53 -0.23,1.37 -0.8,-0.17 0.22,-1.04 -0.35,-1.15 -1.56,0.41 0.17,-0.47 -1.96,-0.57 -0.69,2.64 -1.15,0.13 -0.52,1.73 -2.48,1.62 -0.64,1.84 c 0,0 -1.22,0.63 -1.26,0.81 -0.07,0.18 -0.13,1.9 -0.22,2.13 -0.13,0.23 0.91,1.16 0.91,1.16 l 1.79,-1.1 0.57,0.75 -1.61,1.91 0,0.75 3.85,3.22 4.34,1.44 2.66,0.47 0.92,-0.4 1.85,-1.21 -0.34,-0.53 -1.8,-0.05 -3.46,-1.56 -0.58,-1.15 -2.01,-1.63 0,-2.53 0.67,-0.81 0.65,1.16 -0.65,0.46 0.47,1.5 1.22,0.63 0.99,-0.23 -0.13,1.33 2.43,1.84 3.41,0.07 c 0,0 2.53,-0.93 2.36,-0.93 -0.18,0 -1.38,-1.79 -1.38,-1.79 l 0.29,-0.86 -1.34,-1.5 -2.12,-1.91 2.53,1.27 0.29,-0.69 0.8,0.18 0.29,-0.64 1.1,0.51 1.09,-0.16 0.92,-1.21 0.98,-0.59 -0.28,-1.21 0.41,-1.32 -1.11,-0.47 0.92,-0.8 -0.5,-0.92 1.73,-0.12 0.86,-1.91 c 0,0 -1.09,-0.75 -0.93,-0.8 0.17,-0.07 1.15,-0.17 1.15,-0.17 l -0.16,-0.82 -1.04,-0.75 1.56,0.29 -0.24,-0.93 0.98,0.24 0.41,-0.86 0.45,-0.64 -1.03,-0.7 -1.32,0.36 1.26,-1.22 0.98,0.7 0.46,-1.45 -0.51,-1.56 -1.22,0.63 0.82,-1.72 0.45,-1.16 -1.38,0.06 -1.73,1.15 0.59,-1.32 -0.94,0.06 0.69,-0.87 -0.91,-0.23 0.45,-0.75 1.28,-0.4 0.1,-1.05 -0.46,-0.46 0.88,-0.17 -0.18,-1.5 0.86,0.81 0.36,-0.57 0.75,-0.93 -0.52,-0.46 0.57,-0.12 0.7,-1.27 -0.82,-0.92 -0.92,-0.05 1.04,-0.7 1.27,0.92 0.58,-0.98 -0.87,-0.63 1.51,0.23 -0.13,-0.69 -0.91,-0.18 0.97,-0.29 0.57,0.18 0.71,-2.09 -1.62,-1.5 -0.81,0.82 0.12,-1.45 -1.15,-1.21 -1.45,-0.23 -0.63,0.7 -0.81,-2.61 -1.04,-0.57 -0.88,1.56 -0.68,0.06 -0.35,3 1.91,1.09 -1.86,0 0.63,0.82 -0.97,0.11 -0.76,0.98 0,1.15 -0.5,0.23 -0.53,-1.33 -0.57,1.27 -0.75,-0.57 0.97,-1.5 -0.39,-0.58 -1.73,0.86 0,-0.51 1.15,-1.39 -0.34,-1.56 -0.12,-1.61 0.63,-0.06 0.34,-1.33 0.87,0.4 0.65,-2.25 -1.06,-0.92 1.45,-2.25 -0.92,-2.25 -0.64,0.41 -0.69,-0.47 -0.39,0.92 0,-1.89 -0.76,-0.7 -0.46,0.81 -0.07,-1.62 0.93,-0.51 -0.52,-0.76 -0.92,1.21 -0.17,1.62 -1.85,1.56 -1.15,3.01 -0.3,-0.71 -1.49,1.97 0,-1.97 1.03,-2.41 1.67,-3.99 -1.09,-1.56 -2.07,2.71 -2.08,0.92 -1.16,1.68 z m 1.96,12.75 -0.34,-1.38 -1.28,-0.34 0.3,-0.64 2.47,-0.75 -0.22,1.85 -0.93,1.26 z m 98.34,-13.12 0.45,0.31 0.97,-0.19 1.2,0.67 -0.92,1.09 -1.04,0.49 -0.86,0.97 -1.21,-0.16 -0.81,-0.69 -0.73,0.37 0.81,0.97 1.28,0.52 1.95,0.24 -0.4,0.57 -1.09,-0.48 -0.32,0.27 0.65,0.69 0.28,0.81 -0.93,0 -0.69,0.32 -1.12,-0.72 -1.18,-0.37 -1.02,0.45 0.33,0.52 -0.11,0.73 0.71,0.04 -0.27,0.73 0.31,1.12 0.81,-0.2 1.46,-0.69 -1.14,1.05 -0.64,0.88 0.49,0.05 0.81,0.57 0.85,-0.77 1.97,-1.33 0.2,-0.53 0,-0.84 1.12,-0.61 -0.36,0.69 0.33,0.28 1.08,-0.24 -0.77,1.8 0.17,0.74 1.9,-1.58 0.35,0.2 -0.92,1.5 0.17,0.28 0.75,-0.24 0,0.65 0.38,0.64 1.18,-1.45 0,1.21 0.43,0.17 1.01,-1.06 -0.04,1.61 1.56,-0.48 0.09,0.73 -0.6,0.57 0.12,0.97 1.41,-0.45 0.32,-1.02 1.38,1.1 c 0,0 0.08,-1.1 0.16,-1.1 0.07,0 0.85,0.25 0.85,0.25 l 0.41,-0.93 0.71,-0.07 0.25,-0.69 1.42,-0.05 0.65,-1.09 0.73,-0.89 -0.89,-2.09 0,-0.81 -0.95,-1.05 -1.41,-1.04 -0.16,-0.73 -0.63,-0.85 -1.46,-0.57 -0.93,-2.37 -3.39,-0.13 -2.9,0.65 -1.55,-0.44 -1.64,-0.28 -1.38,0.81 z m 52.63,-2.46 -0.52,-0.11 -0.18,1.1 -1.21,0 0.22,0.8 -0.79,0.24 0.57,2.07 0.64,0 0.06,-1.56 1.21,-1.45 0,-1.09 z m -1.33,-6.57 -0.75,1.15 0.75,1.27 0.52,0.23 0.05,-0.98 0.47,-0.92 -0.18,-0.59 -0.86,-0.16 z m -5.02,-4.21 0.63,-2.42 -0.74,-0.81 0.05,-1.39 0.64,-2.19 0.28,-1.09 -0.86,0.92 -0.92,2.41 0,1.68 -0.52,0.87 0.75,0.97 0.33,0.87 0.36,0.18 z m 6.18,-9.75 0.63,-2.03 -0.8,-0.35 -0.83,0.64 0.59,0.46 0.41,1.28 z m 7.21,-5.89 0.64,-0.41 -0.37,-0.86 -0.45,0.06 0.18,1.21 z m -9.46,-16.91 -0.46,0.76 0.1,0.86 1.4,1.44 -0.81,0.98 -0.07,2.25 0.57,1.16 -1.43,-0.82 -0.94,0.29 -1.14,0.4 0.35,0.87 0.4,1.21 -0.63,-0.11 -0.06,0.28 -1.44,0.93 0.99,0.98 2.71,0.76 0,0.63 0.56,0.29 -0.1,0.92 -1.28,0.06 0.07,0.41 -0.24,1.37 2.36,2.43 1.28,-0.69 0.39,1.03 0.53,-0.22 0.86,0.39 1.28,-0.74 0.29,-1.21 0.85,0 0.63,-1.21 -0.44,-0.81 -0.81,-1.79 0.98,-0.52 1.37,-1.33 1.09,-2.89 0.42,-3.05 -1.37,-0.58 -1.06,-1.73 -1.95,-3 -2.61,-1.22 -1.14,0.64 -1.4,-0.4 -0.1,0.98 z m 16.27,-3.64 -0.06,1.32 1.15,3.18 0.06,2.54 2.36,0.98 -0.11,1.51 -0.63,-0.64 -0.82,-0.23 c 0,0 -0.4,0.4 -0.4,0.58 0,0.17 -0.92,0.11 -0.92,0.11 l -0.63,-1.04 -0.87,0.88 -0.35,-0.77 -0.99,-0.51 -0.79,0.8 0.22,1.28 1.15,1.1 0.3,1.21 -0.52,1.38 -1.06,0.58 -0.73,-0.58 0.12,1.04 -0.93,0.92 -0.06,0.75 0.99,-0.06 0.39,0.52 1.34,0.29 0.52,0.46 -0.82,0.93 0.07,1.21 -0.64,1.09 -1.11,-0.22 -1.09,1.43 -1.03,1.57 -0.52,-0.58 -1.85,-1.68 -1.22,0.29 -0.52,0.99 -0.09,1.9 -0.25,1.44 -0.91,-0.11 0.28,-1.39 -0.69,0.81 0.11,-1.51 -0.39,-0.62 -0.89,1.38 -0.23,1.67 -1.02,0.92 -0.29,0.76 -0.86,-0.52 -0.94,0.41 0,1.03 0.33,0.69 -0.15,1.04 -1.14,0.11 -1.64,0.52 -0.34,0.75 0.59,0.93 1.26,-1.22 0.87,-0.35 -1.33,2.2 -0.28,0.81 0.79,0.58 -0.73,0.86 0.28,0.76 -0.75,1.67 c 0,0 1.37,0.28 1.56,0.28 0.19,0 1.09,0.41 1.09,0.41 l 0.7,0.81 0.98,0.17 0.45,-0.98 -0.1,-1.73 -0.35,-0.4 0.51,-0.93 0.3,-0.98 0.63,0.98 1.91,0.76 1.25,0.69 0.64,-0.42 0.36,-1.32 0.47,-1.32 0.1,-1.62 -0.05,-0.98 -0.35,-0.52 0.4,0 0.63,-0.52 -0.45,-1.04 -0.75,-0.69 1.01,0 0.78,0.86 1.36,0.06 1.46,-0.57 1.49,-1.21 0.75,-0.98 1.57,-1.45 2.25,-0.12 1.45,-1.03 0.28,-0.99 1.51,-0.74 1.37,-1.05 0.41,-0.63 -0.06,-0.52 0.18,-0.92 0.62,0.17 0.64,1.15 1.04,0.41 1.38,-0.29 0.52,-0.81 1.21,-1.61 0.13,-1.44 -0.48,-1.5 -0.33,-1.21 c 0,0 0.46,-0.41 0.63,-0.41 0.18,0 1.39,0.52 1.39,0.52 l 0.57,-0.52 -0.41,-0.87 0.06,-0.93 -1.09,-1.49 -2.01,-0.81 -1.4,-1.04 0.47,-0.46 -0.47,-0.52 -1.89,-0.05 -0.19,-0.7 -0.87,-0.8 -0.92,0.11 -0.97,-0.06 -0.35,-1.09 0.23,-0.99 -0.34,-1.32 -0.81,0.28 -1.5,-0.05 -0.41,-0.99 -0.47,-0.9 -0.1,-0.87 -0.7,0 -0.51,-0.42 z m -187.32,57.88 1.1,-0.8 -1.1,-1.68 -1.73,-0.74 -0.06,1.38 1.79,1.84 z m -1.61,4.39 -0.76,-1.27 -2.83,-0.87 -1.03,0.75 0.4,1.39 1.96,0.75 2.26,-0.75 z m 39.47,-70.75 -0.7,-1.04 -1.45,0.06 -0.1,-0.34 0.92,-0.64 -1.62,-1.85 -1.34,-1.32 -0.17,-0.7 -1.37,-0.92 -0.35,-1.39 1.33,0.64 0.75,1.09 0.4,-0.51 1.45,-0.99 -1.33,-0.97 1.02,-1.11 1.68,-0.22 0.82,0.51 0.63,-0.46 1.33,0.7 0.34,-0.47 -1.09,-0.34 -0.47,-0.47 1.38,-0.39 1.51,-1.04 -0.64,-0.86 -0.46,-0.36 0.29,-0.4 -0.7,-1.67 0.82,-0.35 1.5,0.63 -0.06,-1.15 -1.91,-1.04 -0.97,-1.9 0.17,-0.99 0.45,0 0.59,1.51 0.58,0.17 1.32,0.81 0,-0.47 -1.38,-1.27 -0.11,-1.26 0.63,0.06 0.63,1.15 0.75,-1.1 -1.15,-1.79 -0.69,-2.13 -1.05,-0.58 -0.46,0.46 -1.04,0.17 0.29,0.7 -0.05,0.98 -0.76,-0.7 -0.73,0 0.06,0.88 0.97,1.15 -0.06,2.64 -0.91,-0.74 0.51,-0.28 -0.47,-0.81 -2.24,0 -0.71,-0.87 -1.37,-1.04 -1.97,0.63 2.19,0.52 0.7,1.27 1.5,0.46 -1.1,0.58 -0.99,-0.28 -1.03,0.05 -0.81,0.92 -1.73,-0.05 -4.39,1.55 -2.48,-0.16 -1.61,0.86 0.16,0.98 3.36,1.9 -0.51,0.88 1.08,2.41 1.28,0.11 -0.29,0.64 3.4,4.85 2.14,1.85 1.43,2.07 2.49,0.76 1.97,-0.18 z m 140.99,-84.54 -0.33,-0.97 -0.84,0.05 -0.8,0.57 0.13,0.41 1.84,-0.06 z m 0,-24.61 0,-0.79 -0.96,-0.04 0.96,0.83 z m 0,3.43 -0.86,0.19 -0.36,0.92 0.87,0.37 0.46,-0.46 -0.11,-1.02 z m 3.23,-1.15 -0.33,-0.45 -0.77,0.1 0.07,0.55 1.03,-0.2 z m 3.3,2.76 -0.6,-1.24 -1.37,-1.52 -0.88,1.34 1.06,0.41 0.87,1.18 0.92,-0.17 z m 3.66,-0.78 0.2,-1.57 -1.49,-0.58 -0.77,0.82 0.5,1.1 1.56,0.23 z m 5.37,4.46 0.14,-2.21 -0.78,-0.55 -0.95,-0.78 -0.33,0.08 0.5,0.57 0.19,0.76 0.59,2.16 0.64,-0.03 z m 0.46,3.11 0.68,-0.27 0,-0.96 -0.96,-1.2 -0.64,0.14 0.15,0.86 0.59,0.61 0.18,0.82 z m 99.76,-146.29 1.17,2.01 0.12,2.06 -0.34,3.58 -0.36,2.09 0.92,1.62 1.16,3.32 1.5,3.38 1.04,2.05 1.15,3.47 1.85,3.81 1.74,2.54 1.95,1.96 1.27,4.15 c 0,0 -0.1,1.27 -0.1,1.63 0,0.34 -0.36,1.27 -0.36,1.27 l 0,1.49 0.46,1.97 0.34,1.74 -0.57,1.61 -0.69,1.72 -0.45,2.19 -0.24,1.86 -1.04,1.94 -1.27,1.41 -2.08,0.22 -1.6,0.23 -1.98,1.38 -1.62,0.7 -0.46,1.38 1.04,2.09 0.35,2.65 1.4,2.55 1.02,0.92 1.27,5.07 -0.69,3.81 -1.15,2.18 -1.79,-0.16 -3.29,1.21 -2.2,-1.52 -2.3,-2.52 -1.62,-1.4 -1.85,0.49 -3.92,2.05 -3,0.13 -3.81,-2.18 -3.93,-3.94 -5.17,-4.04 -3.71,-3.58 -3.46,-3.46 -2.19,-1.38 -4.04,-0.8 -4.86,-1.97 -3.4,-1.79 -2.98,-2.37 -2.95,-1.83 -1.16,-1.64 -1.96,-1.26 -1.9,-0.11 -3.23,0.04 -3.99,1.22 -3.98,1.38 -2.14,0.59 -1.32,0.11 -0.8,0.58 -1.68,0.33 -1.11,-0.33 -1.84,0.4 -1.4,0 0.07,0.47 0.76,0.51 -0.76,0.35 -0.56,0.75 -1.4,1.04 0.08,1.45 -0.93,1.97 -0.93,0.68 -1.45,1.21 -2.83,0.53 -0.06,0.62 -1.03,0.31 0.18,0.33 -0.59,0.68 -1.04,-0.28 -1.25,0.99 -0.82,0.51 0,0.92 -0.87,-0.22 0.29,0.86 -2.02,-0.11 -2.07,0.11 0.17,0.82 -1.85,0.97 -0.05,2.13 -0.35,1.63 0.4,0.81 0.92,-0.42 -0.46,1.45 -0.98,0.51 -0.81,1.95 -1.72,1 -0.93,0 0.52,0.51 1.21,1.45 1.04,2.19 1.04,2.36 -0.47,1.38 0.34,3.23 0.93,2.31 0.12,2.38 -0.92,3.05 -0.94,2.25 -0.79,0.24 -0.58,0.34 0.36,1.21 -0.54,0.18 0.22,1.15 0.42,0.28 0.22,1.74 -1.43,1.37 -0.46,-0.27 -1.79,1.97 -0.24,-1.34 -0.23,1.51 -0.12,3.05 0.82,2.26 0.86,0.8 0.17,1.27 0.06,1.15 0.7,0.99 0,1.02 0.52,1.63 0.46,1.38 -0.29,0.35 1.66,2.66 1.06,1.72 0.23,1.45 -0.3,1.27 0.53,3.06 0.16,2.02 1.05,1.72 1.55,1.5 0.58,1.1 0.39,3.13 0.89,2.76 2.58,1.43 2.49,2.21 0.97,2.12 0.82,1.21 1.27,1.74 0.74,1.74 0.8,3.22 0.07,2.25 -0.47,0.58 -0.86,0.28 -0.12,1.11 -0.62,1.95 -0.07,2.03 0.53,1.33 0.58,1.67 -0.25,0.41 -0.17,1.08 0.29,0.99 1,2.03 0.16,1.43 1.04,1.44 1.67,1.45 1.43,2.31 0.94,2.81 0.23,3.07 c 0,0 -0.17,3.12 -0.17,3.29 0,0.17 0.17,1.05 0.17,1.05 l 0.75,1.02 0.99,0.41 0.22,-1.15 0.93,-0.45 2.3,-0.53 0.92,0.58 1.28,0.92 1.62,0.41 0.68,0.8 0.35,0.75 0.53,-0.51 0.8,-0.53 1.27,0.53 c 0,0 1.44,1.09 1.55,1.38 0.12,0.28 1.11,1.73 1.11,1.73 l -0.23,0.68 0.34,0.76 1.49,1.45 0.29,1.09 1.15,0.58 0.07,1.38 0.4,0.64 1.62,1.6 0.69,1.28 1.68,1.15 1.5,0.86 0.92,0.94 0.23,1.03 1.78,0.86 0.53,0.87 2.01,1.27 1.74,0.93 1.16,-0.23 0.5,0.68 0,0.82 0.81,0.33 0.61,0.94 0.31,0.92 0.94,0 c 0.16,0 0.75,0.53 0.85,0.7 0.13,0.16 0.35,0.79 0.35,0.79 l 0.64,0.13 0.98,0.45 1.03,0.3 1.33,1.15 0.35,1.26 0.42,1.62 1.37,1.38 0.74,-0.05 0.65,-0.87 0.4,0.35 0.76,-0.87 0.68,0.93 0.18,1.5 0.75,-0.46 0.12,-1.1 0.1,-1.62 -0.62,-0.97 0.74,-1.23 1.16,-0.15 1.39,-0.71 0.63,-0.91 0.39,-1.68 0,-1.73 c 0,0 -0.16,-1.39 -0.16,-1.55 0,-0.18 -0.58,-1.63 -0.58,-1.63 l 0.05,-0.92 0.58,-0.17 0.3,-0.64 1.1,-0.34 0.34,0.98 -0.12,0.69 0.58,0.69 0.45,-0.23 0.41,-0.8 0.51,-0.06 0.13,-0.7 0.46,-0.57 1.21,0.51 0.98,-0.05 0.98,0.29 0.58,-0.11 1.21,0.8 0.19,0.87 0.63,0.92 1.08,0 c 0.24,0 1.32,0.52 1.32,0.52 l 1.17,0.58 0.58,-0.06 0.97,0.35 1.04,0.51 0.75,-1.1 0.87,-1.1 1.56,-0.91 1.84,0.52 c 0,0 0.93,0.92 1.15,1.04 0.25,0.12 2.27,0.98 2.27,0.98 l 2.87,0.46 0.82,-0.23 1.21,0.06 0.75,1.37 0,1.35 c 0,0 0.34,1.03 0.46,1.2 0.11,0.18 -0.52,0.86 -0.52,0.86 l 0.06,0.87 -0.64,0.75 -0.99,1.28 -1.43,1.54 -0.05,1.45 0.22,1.44 0.4,1.72 1.27,3.18 1.51,1.45 0.97,0.69 0.81,0 0.77,-1.26 0.73,-0.07 0.7,0.87 0.51,0.81 0.81,-0.29 1.04,1.32 0.64,0.53 0.87,-0.59 0.51,0 0.52,0.76 0.17,1.1 0.93,0.45 1.15,0.81 0.69,1.16 0.65,-0.4 1.2,0.69 0.98,1.21 1.05,0.75 0.45,1.21 -0.11,2.03 0.06,2.08 0.67,2.35 0.94,1.8 1.21,0.74 1.16,0.13 0.79,1.61 0.47,2.72 -0.57,2.81 -1.62,2.83 -1.26,3.35 -1.74,3.98 -2.72,5.14 -0.85,0.86 -0.58,0.35 0.06,0.52 -0.48,0.69 -0.73,1.04 -0.24,0.81 -0.75,0.4 -0.4,0.82 -0.51,1.21 -0.59,0.16 -0.64,-1.44 -0.22,-1.56 0.4,-2.19 0.29,-1.79 -0.29,-3.06 -0.82,-1.32 -0.85,-0.35 -1.33,0 -1.33,-0.75 -0.4,-0.81 0.75,-1.79 0,-1.44 -0.87,-1.51 -0.92,-0.4 -1.38,0.18 -1.1,-1.04 -0.69,-1.32 -1.4,-0.3 -0.5,0.76 -0.07,0.8 -1.03,0.69 -0.98,0.23 c 0,0 -0.87,1.04 -0.99,1.22 -0.12,0.17 -0.8,0.51 -0.8,0.51 l -0.13,0.93 -0.98,0 -0.51,0.98 -0.64,0.92 -1.09,0.13 0.12,1.09 -0.34,0.4 -0.65,-1.56 -1.21,1.56 -1.14,1.56 -0.19,1.56 1.21,1.44 0.64,0.92 0.93,1.1 0.63,0.34 0.34,0.81 -0.69,0.12 0,0.45 0.57,1.51 -1.43,-0.29 -1.28,-0.97 0.07,-0.59 0,-0.4 -0.52,-0.17 -0.53,-0.92 0.53,-1.28 -0.35,-1.5 -1.45,-1.73 -0.69,0.23 -0.8,-0.63 -0.64,-0.87 -0.75,-0.34 0,-1.04 -0.36,-0.87 -0.28,-1.21 1.05,-0.35 0.74,0.06 0.98,0 0.06,-0.35 -0.92,-0.11 -0.46,-0.4 0.46,0.06 0.92,0 0.07,-0.75 -1.16,0.05 -1.05,0.23 0.31,-0.68 0.62,0 0.41,-0.35 -0.69,-0.35 -1.12,0.52 -1.12,0.11 -0.54,0.58 0.18,-1.04 0.86,-1.45 1.16,-1.14 1.03,-0.59 1.04,-0.17 0.52,-0.46 -0.58,-0.4 -0.8,0 0.69,-0.4 0,-0.52 0.86,0.74 0.46,-0.12 1.21,-0.16 0.93,0.34 0.58,-0.41 0.8,-0.8 0.69,0 0.7,-0.4 -0.17,-0.39 -0.63,-0.07 0.51,-0.64 0.59,-0.11 -0.19,-0.58 -0.28,-0.41 -1.04,0 -0.76,-0.46 -0.33,-0.75 1.32,-0.74 1.04,-0.19 0.4,-0.45 -0.22,-0.58 -1.79,0 0.11,-0.46 1.15,-0.58 0.93,-0.98 0.87,-1.15 0.45,-0.58 -0.58,0 -0.86,0.58 -0.93,0.33 0.12,-0.85 0.75,-0.87 -0.35,-0.34 -0.74,0.87 -1.09,0.56 0.05,-0.85 0.28,-0.58 -1.03,0.16 -0.98,0.71 -0.06,1.09 -0.7,0.58 -1.03,0.23 -0.41,0.11 0.06,1.1 -0.35,0.8 0.12,0.58 0.58,0.99 0.93,0.45 1.03,0.4 0.34,0.77 -0.92,0.1 -0.69,-0.57 -0.98,-0.7 -0.29,-0.81 -0.7,-1.26 -0.8,0.11 -1.55,0 -0.42,0.64 -0.33,0.45 -1.1,0.52 -1.21,0.58 -0.98,0.17 -0.59,1.34 -1.6,0.05 -0.75,0.92 -0.99,1.27 -1.1,1.62 -0.17,0.81 -1.08,1.27 -0.54,-0.12 -1.2,0.4 -1.8,0.13 -1.44,-0.06 -1.21,0.34 -1.16,-0.06 -2.01,0.46 -1.14,-0.23 -1.24,-0.69 -1.1,0.35 -1.2,0.11 -1.08,0.41 -0.77,0.4 -2.01,1.27 -0.93,0.98 -1.31,0.29 0.15,-0.92 0.42,-1.1 -0.46,-0.35 -1.1,0.35 -0.75,1.27 -0.68,0.98 -0.71,0.23 -0.57,-0.58 -0.18,-1.09 -0.29,-1.38 -0.33,-1.04 1.14,-0.47 0.57,-1.44 0.19,-0.69 0.86,-0.29 0.69,-0.86 2.2,-0.41 2,0 1.87,-1.5 1.48,-1.62 3.3,-0.97 1.6,0.28 0.83,0.41 0.51,1.09 0.92,-0.17 0.29,-0.64 -0.41,-1.1 1.21,0.3 2.19,0.28 1.62,-0.06 1.27,0.3 1.1,-0.52 1.32,-0.35 1.17,-1.62 -0.59,-0.63 -1.22,0.46 -1.37,0.17 -1.44,-0.69 0.76,-2.18 -0.41,-1.22 0.51,-0.35 2.31,0.11 1.27,-1.66 -0.75,-2.15 0.93,-1.49 -0.24,-1.33 0.3,-1.55 -1.04,-0.58 -0.83,0.87 0.29,0.68 -0.57,1.04 0.42,0.81 -0.24,0.98 -1.44,1.16 -1.33,1.32 -1.73,1.04 -1.05,-0.23 -1.21,0.34 -0.68,0.75 -1.1,-0.34 -1.15,-0.18 -0.86,0.36 -0.88,0.46 -1.62,-1.09 -0.5,0.22 -1.22,-0.18 -1.79,0.75 -0.98,0.07 -0.76,0.46 -1.27,0.06 -1.27,0.33 -1.21,0.54 -1.27,-0.12 -0.12,0.63 -1.09,0.98 -1.1,0.75 -0.05,0.69 -0.97,0.7 -2.14,0 -1.96,-0.41 -0.71,-0.81 0.18,-2.01 -0.28,-0.98 -0.87,-1.27 -0.69,-2.03 -0.52,-2.42 -1.4,-1.15 -1.54,0.05 -1.55,-0.34 -1.22,0 -1.22,-0.58 -0.28,-1.21 -1.09,-1.67 0.22,-1.44 1.21,-1.67 0.7,-0.99 0.34,-0.76 0.34,-1.15 -0.86,-1.9 -0.86,-2.31 -1.05,-0.81 -1.44,-2.13 0.24,-1.44 -0.18,-1.39 -0.58,-3.92 0.52,-2.89 1.34,-1.5 1.31,-0.11 0,-0.88 -0.97,-1.6 -0.12,-2.48 0.46,-2.14 -1.32,-0.75 -0.86,-1.39 -0.06,-2.71 -0.65,-0.8 -0.5,-0.06 -0.7,-0.35 0,-0.98 -1.15,0 -1.63,-0.86 -2.93,-1.45 -0.42,-1.21 -1.2,-0.69 -0.63,-1.96 -0.47,-0.82 -1.78,0.06 -1.74,1.33 -0.75,1.04 -1.21,0.81 -1.57,-0.18 -1.66,-1.38 -0.58,-0.64 -2.42,-0.4 -1.05,-1.21 -0.39,0.35 0.17,1.61 -0.39,1.5 -0.65,2.77 -0.75,1.16 -0.74,-0.52 -0.53,0.58 -1.27,0.27 -0.12,1.17 -0.34,1.56 0.28,1.2 -0.12,3.23 -0.39,2.26 -0.06,2.25 -1.1,1.5 -1.5,2.53 -0.18,1.62 -0.56,1.22 -0.75,0 0.22,0.74 -0.98,0.35 -0.81,0.11 0.7,2.54 0.92,0.06 0.7,0.69 -0.17,0.98 0.98,1.22 1.79,0.86 0.74,-0.4 0.86,-0.46 1.63,1.28 1.25,0.62 2.61,0.76 2.07,0.1 2.26,1.79 1.45,-0.05 0.86,0.75 2.42,0.29 0.98,1.1 -0.23,1.61 -0.75,2.83 -0.93,1.73 -1.15,3.18 -0.4,1.5 -0.74,0.05 -0.13,0.63 -0.98,0.29 0.18,0.52 0.74,-0.17 0.22,0.41 -1.02,0.74 -0.98,0.12 -1.63,0.69 -1.38,0.86 0.29,0.7 -0.92,0.46 -1.1,0.24 -0.51,0.79 -1.05,-0.22 -2.19,0.12 -2.14,-0.58 -1.5,0.23 0.64,0.69 0.29,0.64 -0.99,-0.06 -0.97,0.12 -0.06,1.27 0.7,0.74 1.72,1.16 0.41,0.69 0.97,0.52 0.47,-0.34 1.22,-0.42 0.16,0.59 0.86,0.51 1.27,0.69 -0.74,0.87 -0.3,1.32 -0.96,0.13 -0.81,0.87 -0.19,0.97 0.93,0.06 0.23,0.51 0.52,-0.1 0.18,-0.53 0.58,-0.57 2.07,0.69 0.98,0.51 0.23,0.99 -0.76,0.11 0,1.21 0.7,1.11 1.1,0.57 0.11,0.86 -0.06,1.33 -1.09,1.73 -0.06,1.03 0.69,1.4 0.81,1.09 0.29,1.56 0.7,0.81 -0.18,1.62 0.12,2.07 -0.07,1.74 -0.62,1.15 -0.53,1.21 -0.58,1.27 0,1.22 0.76,0.68 -0.41,-0.81 0,-1.02 0.47,-0.88 0.8,-0.29 0.64,-0.69 -0.06,-0.63 c 0,0 0.46,-0.35 0.74,-0.35 0.3,0 0.54,1.28 0.54,1.28 l -0.71,0.63 -0.79,0.69 -0.7,0.69 0.06,1.61 0.74,0.41 1.27,1.1 0.23,1.62 1.11,1.32 1.21,0.17 -0.12,1.15 0.63,0.52 -1.15,0.58 -1.78,1.09 0.64,0.35 -0.19,0.53 -0.69,0.23 -1.56,1.67 -0.86,0.81 -1.27,0.35 -0.82,1.03 0,0.58 -0.97,0.52 -0.99,1.67 0.29,0.35 -1.04,0.57 -0.22,1.5 1.26,0.92 -0.35,2.2 0.65,1.58 1.3,-1.58 1.06,-2.12 0.99,-0.46 0.94,0.11 0.82,-1.22 -0.22,-0.88 0.4,-1.71 0.47,-1.22 0.29,0.88 1.06,0.3 1.33,-1.02 0.84,-1.45 -0.95,0.11 -1.46,0.23 -0.52,0.31 0.41,-1.07 0.87,-0.05 0.59,-1.11 2.17,-0.95 0.53,0.42 0.35,1.23 0.65,-0.94 0,-0.99 0.7,-0.06 0.87,1.05 -0.05,0.94 0.35,0.75 -0.24,1.12 0.88,0.59 0,1.11 0.53,0.71 0.83,-0.35 0.34,-0.77 1.24,-0.17 0.76,-0.41 0.86,0.7 0,0.88 1.08,1.23 0,2.16 0.93,3.07 0.93,1.57 1.6,-0.23 1.23,-0.76 0.34,0.76 c 0,0 0.12,1.23 0.12,1.34 0,0.12 -1.11,1.88 -1.11,1.88 l 0.58,0.88 0.41,1.23 -1.17,1.35 -2.7,2.18 -2.34,1.51 c 0,0 -0.35,2 -0.47,2.05 -0.12,0.06 -1.7,1.42 -1.7,1.42 l 0.53,2.63 1.35,-0.3 2.34,-0.51 0.47,1.57 c 0,0 -1.34,1.46 -1.34,1.58 0,0.12 -2.7,2.11 -2.7,2.11 l -0.59,-0.34 -1.13,0.11 -0.11,-1.12 -0.17,-1.64 -0.7,-0.52 -0.7,0.99 -0.06,0.94 0.7,1.05 c 0,0 0,0.71 -0.11,0.77 -0.13,0.05 -1.06,0.36 -1.06,0.36 l -0.82,1.98 0.29,2.41 1.06,2 1.35,0.58 1.16,1.81 -1.11,1.23 0.12,1.52 0.3,1.18 -0.77,0.3 -0.41,-0.89 -0.93,0 -0.35,-0.59 -0.94,0.65 -0.54,-1.82 -1.03,-2.68 -0.09,-1.89 -0.52,-2.05 -0.23,-1.4 -1.7,-0.24 c 0,0 -1.23,-0.41 -1.36,-0.41 -0.12,0 -3.09,1.28 -3.09,1.28 l -2,2.88 -2.82,1.41 -2.93,2.17 -1.35,1.51 0.72,1.35 -1.54,1.77 -0.11,1.83 -1,2.1 -1.41,2.58 -2.82,1.17 -1.44,-0.41 -0.49,-1.41 -0.64,-0.52 1.06,-0.12 0.41,-0.94 -0.34,-0.59 0.56,-0.47 0.07,-1.57 1.64,-0.47 1.52,-1.41 0.19,-1.41 0.69,-0.42 0.37,-1.92 -0.25,-2.7 1.48,-2.12 0.4,-1.41 2.06,-2.92 2.51,-2.17 1.4,-1.23 1.58,0.34 1.88,-0.34 2.12,-1.12 1.35,-1.64 0.51,-2.87 -0.45,-1.53 0.35,-1.05 1.93,-2.11 1.41,-1.99 1.28,-1.35 -0.23,1.41 0.76,-0.46 0.77,-2.18 1.05,-1.35 -0.69,-1.06 -0.06,-1.11 -1,-1 0,-1.28 0.58,-0.94 0.64,-1.25 -0.64,-1.1 -0.87,-0.23 -0.77,-0.53 -1.42,1.17 -1.03,0.47 1.39,-1.35 0,-0.87 0.76,-0.65 0,-0.76 0.65,-0.58 0.11,-1.3 c 0,0 0.24,-0.83 0.12,-0.83 -0.12,0 -0.88,-0.46 -0.88,-0.46 l -1.17,0.42 0.12,0.46 0.81,0.18 -0.28,0.64 -0.65,0.71 -0.58,-0.53 -0.82,0.76 -1.23,0.75 0.04,1.01 0.31,0.76 0.92,-0.29 -0.68,0.76 0.16,0.7 0.23,1.35 -0.46,1.17 -0.48,0.42 -1.45,0.46 -2.05,1.23 -2.58,1.41 -4.04,2.93 -3.18,1.93 1.11,-1.93 -0.4,-1.23 -0.4,-1.35 0.4,-1.7 -0.3,-1.87 -0.04,-1.06 -0.88,-0.41 -2.24,-0.47 -2.25,0.2 -2.99,2.31 -4.51,4.15 -2.99,3.93 -1.05,3.46 0.12,3.92 0.58,4.38 0.45,1.62 0.71,0.24 -0.93,0.8 -0.34,1.73 -1.85,4.73 -2.09,4.5 -1.95,3.93 -1.05,2.08 -1.37,2.76 -0.7,-1.27 -0.58,-1.84 -0.17,-0.51 -0.46,0.8 0.05,1.5 -0.34,0.98 -0.93,1.5 -0.26,2.48 0.8,-0.52 0.68,0.18 0.63,-0.29 -0.04,1.5 -0.41,-0.69 -0.58,0.51 -0.76,0.99 0,1.49 -0.39,1.27 -0.58,0.35 -0.12,1.05 0.57,0.51 0.52,-0.35 0.52,0.47 -0.58,0.7 0.47,0.04 0.93,0 0,0.57 -1.57,0.41 0.92,0.8 -0.12,0.7 -0.96,-0.4 -0.06,1.67 0.74,-0.28 -0.06,0.63 1.17,0 c 0,0 -0.19,0.63 -0.47,0.63 -0.29,0 -1.73,0.93 -1.73,0.93 l 0.12,0.4 1.37,-0.34 -0.92,1.32 0.71,0.06 1.43,-1.22 0.58,0 -1.67,1.56 0.39,0.29 2.14,-1.44 -1.27,1.44 -1.04,0.63 0.23,0.82 1.16,0 1.21,-1.1 -0.57,1.21 1.32,0.4 0.76,0.64 1.77,0.05 -0.34,-1.55 0.86,-1.1 1.34,1.04 0.75,0.41 -0.23,0.57 -0.65,0.58 0.76,0.35 1.45,-0.17 0,-0.76 0.63,0.52 0.98,0.18 0.06,1.27 2.36,1.55 3.75,1.1 3.64,1.33 3.86,-1.1 2.48,-2.07 0.52,-2.15 -0.7,-1.72 -1.38,-1.39 -0.63,-1.61 0.29,-1.17 1.62,-0.1 1.72,-0.87 1.39,0.17 0.41,0.53 1.21,-0.99 1.56,-0.85 2.65,-0.36 1.32,0.87 -0.86,0.86 -1.03,0.88 -0.65,-0.07 -0.16,-0.34 -1.68,-0.18 -1.04,0.06 -0.8,1.1 0.58,0.75 2.01,0.51 1.28,0.76 -0.76,1.2 -0.92,0.76 -1.39,0.17 -1.32,0.69 -1.38,1.97 -1.22,1.72 -1.11,0.94 0,0.63 0.99,0.75 0.18,0.97 -1.11,0.87 -1.6,0.57 -1.27,-0.17 -1.44,0.35 -1.11,0.81 -1.44,0.63 -1.21,0.12 -0.75,-0.23 -0.46,0.52 0.57,0.51 0.06,0.75 0.93,0.71 1.21,0.34 1.15,-0.46 0.29,-0.93 1.04,-1.1 1.33,-0.46 1.43,0.12 0.6,0.46 -0.18,1.32 -1.17,0.87 -1.94,0.69 -1.18,1.51 -0.37,1.78 -1.7,1.04 -1.66,1.85 -1.5,2.31 -1.8,2.66 -0.29,1.43 -0.62,1.21 -0.3,0.87 0.69,0 c 0,0 0.12,0.69 -0.05,0.69 -0.18,0 -0.7,1.22 -0.7,1.22 l -1.09,0.16 -1.15,-0.57 -0.98,-0.92 -0.98,0.23 -0.75,0.63 0.8,0.63 1.1,0.64 0.29,1.21 -0.29,1.16 -0.34,1.79 0.56,1.15 0.95,0.98 1.02,0.58 -0.58,0.52 -1.32,0.06 -1.22,-0.82 0.29,-0.57 -0.62,-0.17 -1.46,0.12 -2.24,-0.06 -2.37,0.63 -1.44,0.87 -1.68,0.86 -2.19,0.87 -1.67,0.06 c 0,0 -1.68,0.34 -1.84,0.34 -0.19,0 -2.55,0.8 -2.55,0.8 l -1.15,0.7 0.46,0.52 0.99,-0.23 0.74,-0.34 0.24,0.4 -0.47,0.63 0.64,0.7 1.44,0.11 1.73,-0.4 2.36,-0.64 1.34,0.46 5.24,0 2.88,-0.11 1.26,0.29 0.47,0.58 1.34,-0.47 2.94,-0.4 1.85,-0.69 2.59,-0.18 1.21,-0.75 2.07,-1.26 -0.56,0.92 -1.92,1.44 -1.72,0.81 -2.13,0.23 -2.54,1.33 -2.38,0.17 -1.03,-0.46 -2.3,1.27 -0.98,1.03 0.46,0.64 1.32,0.23 -0.29,0.69 -1.26,0 -1.04,-0.74 -0.12,-1.17 0.98,-1.09 1.73,-1.15 -1.44,-0.28 -3.99,0 -2.55,-0.53 -1.59,-0.4 -3.25,1.61 -2.01,0.59 -1.16,0.16 -1.03,-0.63 -0.81,0 -0.06,0.7 1.67,0.69 1.8,-0.12 -1.45,1.32 -1.96,1.16 -0.17,1.56 -1.39,-0.34 -2.02,-0.52 -3.34,0.8 -4.67,1.73 -4.16,0.91 -3.3,1.04 -4.22,0.07 -2.08,1.04 -2.42,0.75 -2.25,1.39 -4.9,1.78 -1.67,0 -1.15,-0.34 -1.62,-0.12 -1.57,0.63 -0.86,1.51 0.86,0.63 0.41,0.46 c 0,0 -1.56,0.46 -1.72,0.46 -0.19,0 -2.03,1.15 -2.03,1.15 l -0.64,1.33 0,1.04 1.85,1.44 2.89,0.94 1.32,-0.12 -0.63,1.38 c 0,0 -2.02,0.41 -2.19,0.41 -0.18,0 -2.14,0.69 -2.14,0.69 l -2.03,1.2 -1.59,1.16 -2.73,0.52 -1.26,-0.58 -1.57,-0.63 -1.67,0.57 -1.84,1.16 -1.96,0.23 -1.63,0.98 0.52,0.87 0.93,0.57 1.1,0.12 -0.82,1.1 -0.86,0.86 -2.2,0.58 -1.19,-1.04 -0.76,-0.75 -1.38,0.81 -2.03,0.28 -0.8,-0.28 -4.22,0 -1.08,-0.46 -0.93,0.64 -0.63,-0.07 0.11,-0.97 0.41,-0.29 -1.11,-0.58 -0.85,0.35 0,-0.87 -1.56,0.11 -0.46,0.58 -1.05,-0.23 -4.79,0.23 -2.93,-0.17 -2.25,-0.18 -3.71,1.16 -2.23,0.75 -2.6,-0.4 -1.97,-0.71 -3.24,-0.22 -3.28,0.18 -2.66,0.57 -2.38,-0.06 -1.54,-0.57 -1.56,-0.64 -3.17,-0.4 -2.31,-0.75 -0.86,-1.1 -0.75,-0.52 -1.45,-0.12 0.18,0.52 0.91,0.36 -0.4,0.51 -1.32,-0.18 -1.22,-0.04 -1.32,0.17 -0.75,-0.82 -0.17,-0.4 1.89,-0.46 0.92,-0.46 -2.01,-0.75 -2.54,-0.64 -2.71,-1.26 -3.57,-0.81 -5.56,-1.57 -3.74,-0.8 -3.11,-0.93 -3.47,-1.09 -3.8,-1.04 -2.77,-1.33 -3.41,-1.2 -2.08,-0.58 -1.15,-0.07 0.23,0.93 1.21,0.87 1.34,0.86 -1.1,-0.05 -1.15,0.46 -1.46,0.29 0.36,0.51 1.84,0.52 2.43,0.98 2.19,0.53 2.07,0.39 1.85,1.11 2.59,0.92 2.83,0.4 0,0.47 -2.02,0 -0.75,0.63 1.28,1.44 1.15,0.58 0.75,0.05 -1.68,0 -2.42,-0.11 -2.37,0 -2.53,-0.12 0.05,0.41 1.27,0.8 3,0.64 2.03,1.96 2.01,1.15 0.4,1.62 1.85,1.27 0.7,0.81 1.49,0.52 0.81,-0.23 2.59,1.1 2.72,1.44 0.87,0.63 0.63,-0.35 2.31,0.59 2.02,0.98 0.87,0.63 0.74,1.04 0.13,1.09 -1.27,-0.63 -2.26,-0.52 0.52,0.87 1.62,0.63 -0.41,0.58 0.65,0.63 1.42,0.93 3.3,1.61 10.78,1.16 -2.35,-2.72 -3.63,-1.15 -2.5,-1.15 -1.26,-1.16 -1.79,-1.27 -1.78,-0.81 0.17,-0.51 0.86,-0.47 -0.05,-0.35 -0.7,-0.23 2.08,0 1.03,0.64 -0.22,0.52 2.23,1.56 1.74,0.69 1.56,-0.05 -0.17,-0.76 2.83,0.52 3.29,0.63 2.02,1.68 2.78,0.58 0.32,0.86 -1.36,0.06 -0.59,0.17 1.91,0.17 2.13,0.41 1.57,0.4 2.42,0 3.4,0.18 4.38,0.97 5.08,0 5.59,0.76 6.18,0.17 3.99,1.45 5.77,0.27 3.41,0.36 5.42,2.06 c 104,-7 192.53,-70.34 235.34,-159.76 l 0.6,-4.51 0,-2.66 -0.68,-1.14 0.68,-1.86 0.25,-2.3 -0.13,-2.2 -1.38,-1.14 -2.3,0.68 -2.9,1.27 0,-1.84 0.49,-2.78 1.59,-3.22 2.07,-1.5 2.2,-0.8 1.27,0 1.27,-0.24 0.24,1.16 0.58,-0.23 0.56,-1.39 1.4,-0.92 0.91,0.12 0,1.5 -0.56,1.6 -0.47,2.43 -1.28,2.19 -0.92,3.34 -0.81,2.32 -1.61,2.88 0.81,-0.35 1.26,-1.73 1.63,-1.84 0.58,0.92 -0.21,0.82 c 14.4,-33.86 22.36,-71.11 22.36,-110.23 0,-69.71 -25.29,-133.51 -67.18,-182.73 z m 22.4,242.86 5.55,-3.57 1.14,-0.59 1.74,-0.8 1.4,-1.96 2.16,-2.54 1.98,-1.62 3,-1.5 0.91,-1.73 1.28,-2.43 1.73,-0.57 2.31,-1.38 2.36,-3.23 2.31,-5.26 4.86,-2.12 4.31,-3.01 -3.69,8.03 -0.97,4.55 -1.22,2.07 -1.26,1.96 -1.96,0.69 -1.4,0.35 -1.5,1.28 -0.8,2.53 -1.97,1.96 -2.08,1.97 -1.84,-0.35 -0.93,1.27 -1.72,1.62 -4.04,2.53 -2.54,1.04 -1.16,1.15 0.34,-2.3 -0.67,-1.39 -1.28,0 -4.63,3.12 -1.72,0.23 z m -19.85,88.75 0.82,0.69 -0.59,1.5 -1.27,1.39 -1.62,0.45 -1.03,-0.33 0.47,-1.74 c 0,0 0.47,-1.46 0.34,-1.39 -0.34,0.24 -1.86,1.73 -1.86,1.73 l -0.91,0.7 -0.68,-0.57 -1.75,-0.24 -1.95,1.04 -0.93,-0.11 -1.04,0.69 0.11,1.5 -1.95,1.39 -0.93,1.72 0,2.2 -0.81,1.5 -2.19,1.61 -2.19,0.47 -0.47,-2.2 0.92,-2.76 1.85,-1.74 -0.8,-1.62 1.03,-2.53 1.73,-3.93 3.12,-3.23 2.78,-1.5 4.72,-1.96 4.17,-1.16 1.61,-0.22 1.61,0.11 -0.56,-1.5 1.95,-2.19 2.07,-3.81 1.97,-1.62 1.83,-0.57 1.39,0.23 1.86,1.61 0.23,4.39 -1.98,3.92 -3.33,2.66 -2.08,1.73 -2.09,0.93 -0.91,-0.46 -2.19,1.72 -1.73,1.5 1.26,0 z m -15.58,-55.75 1.62,1.05 1.38,0.57 1.4,2.77 -0.12,4.16 0,3.46 1.37,1.84 1.85,1.74 1.5,2.42 1.39,3.93 1.97,2.88 0,3.12 -1.26,3.34 -1.52,2.9 -2.43,-0.36 -2.08,-0.92 -2.42,-0.46 -2.65,-0.69 -1.03,-1.16 -1.61,-1.16 -0.59,-2.99 0.23,-2.09 0,-1.6 -1.03,-1.4 -1.17,1.28 -0.91,0.57 -1.04,-0.7 -1.17,0.13 -0.1,1.61 -0.58,1.62 -1.04,-1.39 -0.69,-1.15 -0.81,0.57 -0.81,-0.46 0,-1.61 1.15,-2.43 1.85,-3.69 0.93,-2.31 0,-2.07 1.39,-1.04 1.5,-2.3 0.45,-2.32 1.5,-2.19 0,-2.31 1.85,-1.61 1.73,0.45 z m -411.75,-214.62 0.44,0.22 0.37,-0.48 -0.52,-0.14 -0.29,0.4 z m -5.92,6.28 -0.63,0.79 0.2,0.46 0.4,-0.78 0.03,-0.47 z m 2.6,-1.52 -0.63,0.74 0.02,0.39 0.5,-0.54 0.11,-0.59 z m -0.89,-1.24 -0.15,-0.19 -1.12,0.63 -0.67,1.03 0.69,0.15 0.62,-0.68 0.13,0.37 -0.39,0.56 -0.53,1.47 -0.35,1.24 0.03,0.38 0.49,-0.42 0.41,-1.57 0.52,-0.99 0.34,-1.21 -0.02,-0.77 z m 2.31,-1.05 -0.73,0.21 -0.57,0.77 0.11,0.27 1,-0.43 0.19,-0.82 z m 78.85,11.52 -0.3,-0.17 -0.51,0.69 0.29,0.25 0.52,-0.77 z m 5.94,-3.28 0.35,0.21 0.7,-0.57 -0.07,-0.79 -0.4,0 0,0.63 -0.58,0.52 z m -2.94,1.49 0.34,-0.12 0.23,-0.45 0.82,-0.71 0.11,-0.62 -1.16,0.92 -0.34,0.98 z m 22.5,-13.1 -0.4,-0.35 -1.32,0.58 -0.77,0.63 0.82,0 0.46,-0.5 0.92,0.39 0.29,-0.75 z m 9.58,30.06 c 0.03,-0.21 0.28,-0.34 0.3,-0.55 l -0.42,-0.12 -0.46,0.32 0.09,0.36 c 0.24,0.03 0.25,-0.02 0.49,-0.01 z m -13.43,3.52 -0.56,0.05 -0.88,-0.72 -1.3,0.37 -1.22,0.71 -1.62,0.54 -1.63,0.76 0.28,1.06 -0.27,0.46 -0.05,0.42 0.39,0.13 0.05,0.27 c 1.96,-0.99 3.96,-1.89 5.97,-2.78 l 0.86,-0.68 -0.02,-0.59 z m 1.77,-0.75 -1,0.16 -0.52,0.36 0.69,0.1 0.83,-0.62 z m 2.69,-1.7 -0.41,0.18 -0.47,0.45 0.68,-0.32 0.2,-0.31 z m -0.56,2.32 -0.47,-0.12 -0.42,-0.07 -0.4,0.34 0.36,-0.04 0.35,0.1 0.58,-0.21 z m 0.99,-3.05 -0.93,-0.08 -0.93,0.45 0,0.45 0.62,-0.15 1.24,-0.67 z m 6.08,-2.78 -0.05,-0.54 -0.56,0.39 0.23,0.34 0.38,-0.19 z m -0.98,1.34 0.51,-0.83 -0.5,0.07 -0.65,0.65 0.1,0.32 0.54,-0.21 z m 3.37,-5.95 0.34,0.57 0.4,-0.18 0.17,-0.52 -0.31,-0.24 -0.6,0.37 z m 0.35,4.18 0.92,-0.49 0.1,-0.41 -0.5,-0.26 -0.76,0.31 -0.18,0.46 0.42,0.39 z m 2.64,-5.83 0.87,-0.54 -0.16,-0.43 0.94,-0.84 -0.81,0.2 -0.78,0.1 -0.37,0.43 0.31,1.08 z m -1.79,-0.16 0.43,0.02 0.83,-0.79 -0.21,-0.9 -0.79,-0.04 -0.57,0.62 0.31,1.09 z m 2.28,-2.73 0.64,-0.16 -0.08,-0.4 -0.58,0.15 0.02,0.41 z m 0.31,-2.18 c -0.18,-0.3 0.03,-0.61 -0.14,-0.9 l -0.76,0 0.06,0.9 -0.33,0.38 0.43,0.39 c 0.37,-0.25 0.36,-0.52 0.74,-0.77 z m 1.85,-4.97 -0.39,-0.39 -0.33,0.34 -0.93,0.4 0.23,0.39 -0.32,0.38 -0.24,0.75 0.51,-0.02 0.88,-0.73 0.59,-1.12 z m -0.68,-2.2 0.32,-0.25 -0.36,-0.66 -0.72,-0.06 -0.48,0.44 0.66,0.69 0.58,-0.16 z m 5.2,-4.23 0.57,-0.41 0.54,-0.36 -0.36,-0.19 -0.64,0.04 -0.59,0.38 0.48,0.54 z m -6.79,1.83 0.23,-0.5 -0.41,-0.25 -0.48,0.25 -0.21,0.32 0.87,0.18 z m -1.9,-5.5 0,-0.28 -0.45,-0.17 -0.63,0.32 0.24,0.25 0.54,0.03 0.3,-0.15 z m 4.4,-4.1 -0.58,-0.06 -0.99,0.16 -0.39,0.21 0.8,0.04 1.16,-0.35 z m -46.82,61.4 -0.87,-1.04 -1.57,0.45 -0.39,0.88 1.15,0.11 0.57,-0.4 1.11,0 z m 15.01,-20.27 -1.06,0.42 -1.02,1.15 -2.44,1.04 -0.98,0.4 0.07,-0.92 -1.28,0.52 -1.32,0.34 0,0.99 -0.99,-0.41 -1.03,0.41 0.05,-1.16 -2.02,-1.38 -0.33,1.09 -0.65,2.03 -1.6,1.14 -1.92,0.46 -1.9,0.7 -1.15,0.93 -1.21,0 -0.18,-0.76 -0.4,0.51 -1.16,1.28 -0.81,0.98 0.46,1.33 1.05,-0.69 2.36,-1.22 3,-2.08 0.12,0.65 1.56,-0.53 -0.18,1.27 -1.21,1.38 0.23,0.24 0.24,1.15 -0.3,1.16 -2.08,1.09 -0.28,0.69 1.21,0.47 1.62,-0.47 0.75,-0.93 2.76,-1.71 1.04,0.28 1.74,-0.8 0.98,-0.18 1.49,-1.27 0.76,-0.92 0.92,0.05 0.69,-0.52 0.35,-1.72 0.97,-0.23 1.39,-1 -1.56,0 2.43,-1.31 2.08,-2.43 -0.24,-1.04 -1.02,-0.47 z m -30.19,10.68 -1.09,0.58 -1.67,0.64 -1.63,0.4 -0.51,0.93 -1.1,0.23 -0.69,2.02 -1.1,0.51 0.4,0.75 0.81,-0.28 0.8,0.06 3.24,-2.14 0.52,-0.99 1.62,-1.37 0.4,-1.34 z m -20.72,30.71 0.75,-0.06 1.11,-0.65 0.1,-0.85 -0.34,-0.81 -1.15,-0.05 -0.81,0.75 0.34,0.16 0,1.51 z m 30.65,-24.01 -0.59,-0.41 -1.49,0.46 -2.37,0.29 -3.17,1.8 -2.13,1.32 -3.98,0.98 0.04,1.1 1.57,0.28 1.1,0.53 0.11,0.57 -1.04,0.99 -2.48,1.15 -0.92,1.9 0,2.03 -0.41,1.55 -1.61,0.35 -1.61,1.73 -1.98,1.5 -0.22,1.38 -1.62,0.7 -0.57,0.91 -0.7,0 -0.34,0.81 -1.8,0.98 -0.4,1.62 1.15,-0.8 0.53,0.29 -0.18,1.07 -1.37,0.43 -1.63,1.45 -1.27,-0.64 -2.13,-0.25 -1.5,0.82 -0.4,-0.86 -0.87,0.04 -0.82,0.47 -0.45,0.88 1.09,0 0,0.97 1.05,0.92 2.07,-0.11 1.44,0 2.08,-1.05 1.56,0 1.5,-0.68 3,-2.13 2.54,-2.14 2.36,-3.35 2.54,-1.5 1.96,-2.95 1.74,-2.82 1.61,-2.48 1.74,-1.91 0.68,-1.15 0.99,0.06 0.86,-0.64 -0.47,-1.28 0.7,-0.85 2.3,-1.34 0.59,-1.6 1.62,-1.39 z m -9.18,30 0.06,-3.04 0.45,-1 -0.1,-1.21 0,-1.78 -0.53,-1.27 -1.03,0.45 0.8,1.39 -0.98,2.31 -0.81,1.2 1.5,0.64 0.11,1.62 0.53,0.69 z m 2.71,5.32 -0.64,0.39 -1.14,0.29 -1.5,0.11 -0.34,0.59 0.51,0 0.7,-0.17 0.21,0.57 0.52,-0.52 1.28,-0.52 0.4,-0.74 z m 0.63,0.96 0.46,0 0.87,-0.67 0.19,-0.98 0.84,-1.21 -0.5,-1.11 -0.59,-0.58 -0.34,-1.1 -0.41,0.23 -0.28,0.94 0.58,0.4 0.04,0.92 0,2.36 -0.86,0.8 z m -10.38,211.04 0.35,-0.64 -0.53,-1.89 -1.79,-0.53 -1.32,-0.8 -1.09,-1.23 -2.14,-1.56 -1.51,-1.94 -0.51,0 0.81,1.43 2.53,3 2.77,2.6 2.43,1.56 z m 27.63,39.7 -1.84,-1.04 -0.92,0.46 -0.7,0.98 1.62,1.16 2.02,0.68 -0.06,-0.74 0.81,-0.23 0.28,-0.87 0.76,0 -1.28,-1.15 -0.75,-0.76 0.06,1.51 z m 69.25,-166.93 -1.27,-0.18 -3.52,1.96 -0.63,1.57 -2.13,2.41 4.1,-1.68 3.45,-4.08 z m -4.5,-12.93 -3.11,-1.51 -0.41,0.81 -2.19,1.16 -1.67,2.36 0.11,0.88 1.21,0.86 0.06,-1.74 1.39,-1.5 3,-0.28 1.61,-1.04 z m -29.65,-166.88 3.1,-0.23 -0.45,-2.31 -1.97,-0.11 -1.96,0.69 1.15,0.46 0.13,1.5 z m -84.84,276.17 0.35,-0.75 -0.52,-1.15 0.29,-2.03 1.16,1.21 1.79,1.1 0.8,1.15 0.36,2.48 -1.22,-2.48 -1.04,-0.8 -0.99,0.17 0.24,1.61 0.52,1.63 0.99,2.19 1.14,1.96 1.56,3.63 3.29,4.44 0.76,-0.28 1.61,1.62 c 0,0 0.8,1.5 0.92,1.73 0.11,0.23 1.5,0.92 1.5,0.92 l 1.27,1.44 0.75,1.74 1.62,1.9 1.73,0.79 1.79,2.49 2.54,1.33 0,1.1 c 0,0 0.98,1.27 1.21,1.32 0.22,0.07 -0.06,0.93 -0.06,0.93 l -0.35,0.69 1.91,1.44 1.73,1.33 1.73,0.52 1.33,1.56 c 0,0 1.61,0.87 1.83,0.92 0.24,0.06 1.85,1.27 1.85,1.27 0,0 -1.2,-0.23 -1.44,-0.28 -0.22,-0.06 -2.13,-0.81 -2.13,-0.81 l 0.18,0.4 1.66,0.92 1.35,0.98 1.01,0.98 3.48,2.77 2.6,2.14 1.55,1.38 1.84,2.32 2.03,2.42 0.93,0.63 0.28,1.09 1.39,1.92 1.09,1.79 0.46,2.36 1.44,1.38 1.05,1.32 1.61,0.12 0.69,1.03 1.27,0.37 -0.17,0.91 0.53,0.23 0.74,0.98 -1.51,-0.23 -0.98,-0.58 -1.78,-0.28 0.35,1.04 -0.12,1.32 -1.5,1.39 0.23,0.98 0.81,0.46 1.27,-0.75 0.05,0.87 1.28,0 1.67,0.57 1.5,-0.57 0.63,-0.98 0.52,0.62 -0.64,0.88 -0.57,0.98 -2.19,0.23 0,0.98 -1.97,-0.24 -0.75,-0.86 -1.21,0.46 -1.1,0.93 -0.45,0.92 -1.22,0.92 0.18,0.52 -0.87,0.92 0.06,0.88 0.12,1.14 0.62,0.81 0.82,2.48 0.8,1.27 1.1,3 0.74,1.79 1.51,1.56 -0.69,-1.43 -0.75,-2.26 -0.7,-1.33 -0.51,-1.39 0.23,-1.26 -0.88,-1.56 0.77,-1.27 0.33,-1.44 1.28,0 1.1,-0.23 1.79,0.05 0.69,0.7 0.05,1.32 1.91,0.87 2.82,2.07 1.75,1.91 3.74,1.15 1.38,1.57 3.4,1.61 1.96,0.46 3.29,1.15 1.9,0.06 1.34,-1.16 2.25,-0.18 -1.33,-1.26 -0.86,0.24 -0.58,-0.99 1.1,-0.52 -1.33,-0.92 -0.76,-1.1 2.89,0.23 1.73,0.07 0.87,2.48 2.72,2.19 2.36,1.74 2.48,-0.07 1.84,1.45 1.28,0 -0.69,-3.47 -0.82,-0.98 -1.73,0.18 -2.13,-1.74 -0.51,-1.38 2.48,1.09 2.81,1.5 1.91,0.07 2.65,1.14 3.53,1.15 1.5,-0.46 -1.09,-1.26 -0.3,-1.27 1.72,-0.34 1.17,-0.87 -0.82,-1.09 0.75,-1.39 -1.03,-1.27 0.8,-1.79 -0.8,-1.04 -2.26,-0.98 -0.28,-1.16 -2.76,-1.03 -0.93,-1.5 -1.91,-1.97 -2.93,-3.46 -0.13,-1.85 -3.22,-2.65 -0.47,-1.38 -1.56,-1.21 -2.88,-3 0.98,0.52 1.1,-0.24 0.8,-0.74 -0.41,-0.65 0.93,-0.46 0.69,-0.98 -1.67,-0.75 2.26,-1.26 0.8,-1.21 -0.63,-0.64 -1.16,0 0.75,-1.51 1.39,0.3 1.56,0.81 -1.03,-2.14 -3.01,-1.1 -1.21,-1.39 2.47,0.24 0.87,-0.17 -0.74,-0.76 -2.72,-0.97 0.34,-0.76 1.97,-0.17 0.11,-1.33 -1.33,-1.73 -0.04,-1.84 -0.6,-2.95 0.82,-1.15 -0.45,-1.45 -1.56,-1.78 -1.39,0.51 -1.74,0.3 -0.35,-1.28 0.35,-1.15 0.17,-1.56 2.83,-2.58 -0.05,-1.57 -1.33,-2.54 1.56,1.1 1.55,0.75 2.2,-0.23 -1.16,0.52 -0.63,1.15 1.67,0.41 3.41,-1.4 -1.56,-2.47 -0.81,-1.61 0.98,-1.16 -0.69,-1.62 0.57,-0.58 1.4,-0.28 1.26,-2.08 1.44,-0.23 0.76,1.16 0.97,-0.47 1.17,-0.11 -0.36,2.54 0.92,0.63 0.59,-0.35 0.92,0.64 2.77,0.87 -0.24,-3.19 -1.55,-2.35 -3.05,-0.3 0.56,-1.03 -1.56,-1.22 -2.59,-1.5 1.45,-0.64 0.74,0.87 1.73,1.05 1.56,-0.23 2.61,0.75 0.68,0.63 -0.68,0 -0.87,0.52 2.18,1.1 1.15,1.38 -0.57,1.73 0.75,1.96 1.75,0.63 1.94,1.91 1.56,0.58 0.47,-0.29 1.04,0.81 3.29,1.79 0.86,1.03 2.83,2.49 2.19,1.03 2.13,-0.92 0.53,-1.21 1.38,-1.39 0,-0.8 -2.3,-0.41 -2.26,-1.27 -2.31,-0.17 -0.35,0.93 -0.35,-0.54 -2.87,-0.91 -0.46,0.05 -0.47,-0.45 0.11,-0.75 -0.74,-1.96 -1.68,-1.73 -0.23,-1.5 -0.92,-1.51 -0.57,0.58 -0.82,-0.92 0.24,-1.5 -2.03,-2.31 -2.36,-2.02 0.22,-0.64 1.57,0.75 2.36,1.62 1.04,-0.12 -0.41,-3.58 -3.39,-2.13 -0.53,-2.65 3.58,1.21 3.86,2.71 3.36,3.28 2.37,-1.89 0.16,-3 -0.57,-1.27 -1.73,-1.61 -1.16,0.17 -0.98,-1.11 -0.28,-2.36 -1.1,-1.68 -2.03,-0.63 -3.63,-0.92 -0.29,1.39 -1.32,-1.91 0.57,-1.39 -1.91,-2.42 -0.97,1.27 0.12,1.27 -0.81,0.06 -0.19,-2.02 0.88,-0.69 -0.06,-1.28 0.86,-1.44 0.13,-1.38 -0.81,-1.15 -1.26,-0.35 2.11,-0.69 -0.27,-1.68 -1.8,-0.63 -1.79,2.42 0.23,1.5 -0.47,1.16 -0.91,-1.27 -1.67,-0.06 -2.67,-0.64 -1.67,0.11 1.85,2.09 -2.41,1.44 0.62,0.81 2.02,0.41 0.87,1.15 1.5,0.74 2.82,3.12 1.9,0.81 0.53,-0.81 0.93,0.4 0.39,2.08 -0.63,0.75 -0.75,-0.17 0.12,-1.39 -1.16,-0.41 -0.97,-0.57 -1.85,-0.4 -1.44,-1.79 -1.74,-0.29 -2.42,-1.38 -2.08,0.69 -3.98,-0.52 -0.93,-0.58 -2.01,-0.34 -1.27,0.41 -2.42,-0.59 -3.98,-1.73 -4.91,-2.24 -3.35,-2.72 -2.07,-2.24 -0.69,-1.68 1.9,-1.62 -1.62,-2.3 -0.75,-2.2 -1.84,-2.43 0.64,-0.74 1.26,-0.29 1.86,-1.1 0.16,-2.31 1.22,-1.49 0.39,-2.78 -0.35,-1.96 1.33,-2.76 1.11,-3.47 2.3,-1.68 3.06,-2.42 -2.49,-3.29 -0.92,-1.96 -1.95,-3.52 1.2,0.24 1.45,-0.99 -0.06,-1.73 -0.93,-0.64 -1.85,1.85 -0.28,-2.94 0.63,-3.12 -0.74,-1.84 0.58,-1.04 2.59,0.69 2.36,0.63 1.21,1.91 -0.11,1.22 0.74,2.12 0.54,0.12 -0.07,0.75 0.63,1.16 1.16,1.85 -0.29,0.57 0.18,0.98 0.28,1.62 0.47,0.87 1.49,-0.59 3.98,0.42 4.23,2.01 2.58,3.35 1.46,4.56 -1.46,4.38 0.13,1.21 3.22,1.55 0.29,0.36 2.26,1.32 -0.06,0.74 1.61,3.13 -0.69,0.69 0.92,0.41 2.19,1.73 -0.35,1.5 0.93,1.96 1.9,0.69 1.44,-1.1 1.62,-1.84 2.08,-1.21 1.5,0.51 1.39,-2.31 0,-0.74 1.45,-1.96 -0.7,-0.59 -0.47,-1.32 2.49,-1.97 1.44,-0.33 -1.1,-1.51 -2.03,-4.03 -0.04,-2.71 -1.45,-0.99 2.14,-0.58 0.23,-1.79 1.26,-1.32 -0.39,-0.75 3.98,1.56 3.11,2.37 0.29,1.14 2.26,1.9 0.86,0.88 0.35,-3.92 0.74,-4.39 -0.74,-1.38 1.1,-0.58 -0.65,-1.16 1.22,-1.67 0.45,-2.02 -1.38,-1.05 0.93,-0.91 -1.16,-3.76 0.75,-1.9 1.04,-1.04 0.64,-2.82 1.62,-0.24 1.43,-1.32 0,-1.04 1.61,-0.24 1.98,-1.84 -3.18,-0.7 1.61,-0.68 c 0,0 0,-0.7 0.05,-1 0.06,-0.27 3.01,-2.3 3.01,-2.3 l 1.1,-1.09 -0.92,-3.11 -0.36,-3.3 -4.56,-2.66 -0.97,0.23 -4.85,-1.21 -1.79,-1.72 -3,-0.82 -3.76,0.3 -3.05,0.75 -3.75,1.38 -4.79,1.62 -2.94,0.52 -2.83,-0.58 -0.34,-0.97 -1.1,-1.45 -1.56,0.4 -2.19,-0.69 -2.82,-1.09 -3.7,-3.13 -4.28,-3.23 4.05,2.26 3.46,2.01 5.02,1.51 5.2,0.05 3.69,-1.04 1.27,-2.18 -0.58,-1.74 -4.1,-1.1 -1.37,0.69 -1.4,0.23 1.91,-2.25 0.63,0.36 2.48,-0.59 -1.22,-0.52 -0.28,-1.32 -1.15,-0.81 0.7,-0.63 -0.58,-1.16 0.34,-3.11 1.61,-0.99 0,-0.8 1.62,-1.5 1.27,-0.24 0.99,-1.09 1.9,0.41 0.52,-1.05 0.69,0.12 0.34,1.21 0.29,1.04 1.1,0.4 0.63,1.04 2.37,1.79 0.63,-1.33 -0.28,-2.19 0.69,-0.69 0.06,-1.73 -0.7,-0.23 -1.79,-0.82 -2.19,0.41 -1.27,-0.34 1.1,-0.7 0.28,-0.4 -1.21,-0.35 -2.53,0 -3.07,-0.74 -1.84,0.11 -0.74,-0.52 -0.93,0.11 -0.46,0.63 -0.86,-0.1 -0.18,-0.58 -2.19,-1.56 -3.01,-1.5 -1.03,0.4 0.17,0.99 -0.82,0 0,1.78 1.57,2.31 3.46,1.56 3.98,0.29 -1.44,0.69 -0.98,0.47 1.15,1.26 -4.96,-1.04 -2.65,-0.11 -1.15,0.57 -0.17,-1.32 -5.49,-0.93 -1.04,0.87 -1.15,-1.44 -2.78,-0.22 -0.98,0.27 -0.45,-0.69 -1.9,-1.32 -1.23,-1.5 0.23,-1.45 -1.27,0 -0.63,-0.92 0.63,-0.52 -0.05,-1.15 0.05,-1.56 1.04,0.11 1.1,-0.16 -0.57,-0.81 -1.79,0.04 -0.99,0.65 -1.9,0 -1.85,0.05 -2.71,0.99 -3.06,-0.18 -1.55,-0.69 1.1,0.06 1.95,-0.52 2.08,-0.4 0.23,-0.53 -2.6,-0.05 -3.58,0.62 -0.8,-0.23 c 0,0 0.58,-0.51 0.75,-0.57 0.17,-0.06 -1.9,-2.65 -1.9,-2.65 l -2.77,-1.67 -2.13,-0.93 0.1,1.16 -0.51,1.25 -0.69,-1.08 0.23,-1.22 0.11,-1.49 -1.1,-1.74 -1.79,-1.15 -0.86,-1.39 -1.03,-0.86 -0.3,0.64 0.69,1.66 0.41,1.56 -0.69,2.37 -0.18,-1.38 -0.86,-2.2 -0.64,-1.61 0.86,-1.09 -0.8,-3.24 0.41,-2.01 -0.24,-2.84 -2.88,-0.92 -0.64,-0.52 -1.08,-0.29 -1.75,0.24 -1.38,-0.41 -1.26,-0.46 -1.04,-1.38 -1.96,0.91 -2.43,-0.68 -1.72,-1.85 -2.2,-0.58 -2.54,-0.7 -2.42,-0.68 -2.2,-2.78 -1.84,-3.68 -0.47,-6.01 0.23,-3.45 -0.34,-1.62 -0.24,-3.59 -0.11,-3.58 -1.61,-4.5 -1.05,-0.46 -0.23,-1.26 -1.03,-1.03 0,0.68 -1.16,0.22 -0.92,0.92 0.35,1.63 -0.7,1.84 -0.93,1.39 0.36,1.39 -0.24,0.79 -0.23,1.28 0.69,0.81 -0.91,0.12 -0.11,1.27 0,2.31 0.68,1.02 -0.46,1.05 0.11,1.15 1.16,1.05 0.92,3.57 -0.69,0.46 -0.12,1.05 -0.34,1.61 -0.82,2.31 -0.57,1.26 -1.27,-0.23 -2.3,0.23 -0.69,0.46 0,2.19 -1.05,2.32 -1.39,1.39 -2.07,0.8 -1.84,1.5 -0.11,1.04 -0.59,-0.57 -1.5,1.26 -1.5,0.81 -1.73,0.22 -0.58,0.25 0,1.04 -0.56,0.68 -1.17,-0.12 0.59,-0.69 0.91,-1.38 0.12,-0.92 0.81,0.11 -0.35,-0.8 -0.81,0 0.23,-1.74 0.58,-1.49 -0.91,-0.7 0,0.93 -0.48,1.26 -0.23,1.39 -0.8,0.81 -0.12,-1.04 -0.34,-0.58 -0.35,0.81 -0.58,0.7 -0.8,-0.24 -0.81,1.04 -0.81,1.84 0.11,1.39 -0.8,1.05 -0.34,-0.81 -0.93,0.69 -0.7,1.14 -1.96,2.55 -2.99,1.27 -2.55,-0.35 -1.96,-0.57 -3.22,0.69 -2.79,-2.19 -1.5,-3.35 -0.57,-2.08 -1.04,-2.53 -1.85,-0.92 -1.38,-2.67 -2.53,-5.89 -1.86,-3.33 0.58,-3.47 -0.81,-1.73 0.11,-3.24 0.36,-3.23 -0.36,-2.77 0.12,-3.69 1.5,-2.55 1.27,-2.3 0.46,-2.31 2.78,-1.26 1.04,-0.69 1.27,-0.35 2.06,-1.15 1.51,-0.82 -1.16,0 1.62,-1.04 0.93,0.23 -0.24,0.71 1.39,0.34 0.93,1.14 1.14,1.04 1.16,2.89 1.16,1.15 3.23,-0.93 2.77,-0.79 2.87,-2.19 1.86,-1.97 -0.34,-1.95 -2.43,-1.63 -2.2,-1.39 -1.15,-2.52 c 0,0 -1.96,-0.93 -2.31,-1.17 -0.34,-0.22 -1.38,-4.26 -1.38,-4.26 l 0.13,-3.8 -2.32,-1.97 0.8,-1.62 0.93,-0.69 2.19,-1.85 4.39,-2.77 3.24,-1.5 3.45,-3.12 1.39,-2.3 0.45,-3.35 -1.14,-3.12 -1.16,-2.19 -0.92,-4.04 -0.69,-2.42 -0.93,-2.2 0.81,-3.81 3.11,-6.68 2.31,-3.36 2.08,-1.72 3.46,-0.47 2.88,0.69 2.67,-1.84 3,-3.11 1.03,-2.2 1.96,-2.88 0.92,-1.39 0,2.08 0.7,-0.12 1.96,0.24 1.04,1.5 1.62,-0.35 0.35,2.31 1.15,2.07 2.41,1.05 0.35,-1.05 c 0,0 1.28,-0.81 1.62,-0.9 0.35,-0.13 0.69,1.47 0.69,1.47 l 3.57,-1.72 1.17,0.7 2.65,0.1 2.53,1.16 1.74,-0.24 1.27,-1.95 -1.27,-1.04 -2.08,0.35 -0.69,-0.82 1.85,-2.17 2.53,-0.71 3.47,0.12 -0.92,1.38 0.57,1.18 1.38,0 0.47,-2.22 c 0,0 1.04,-0.69 1.5,-0.69 0.45,0 2.07,-1.37 2.54,-1.61 0.46,-0.24 1.39,-1.84 1.74,-2.2 0.34,-0.35 0.34,-2.43 0.34,-2.43 l 2.53,-1.6 6.35,-1.15 1.04,-1.16 3,-2.54 2.3,-0.11 2.9,0.81 1.49,0.1 1.62,-0.57 3.11,-0.57 3.12,-1.17 -3.46,0.47 0.58,-1.05 2.53,-2.29 2.89,-1.86 2.54,-2.42 1.72,-2.99 0.82,-0.36 2.08,-1.84 2.65,-1.61 1.5,-2.67 2.31,-2.77 3.81,-3.57 1.16,-1.27 1.49,-0.35 3.58,-1.37 1.61,0.56 1.97,-0.92 2.77,-0.11 4.26,-1.96 3.46,-1.17 1.51,-1.61 4.5,-2.76 0.58,-0.92 1.27,-0.48 1.61,-2.53 0.34,-3.11 1.73,-3.81 1.51,-1.15 2.31,-0.82 0,-1.37 -0.93,-1.85 0,-1.5 0.81,-1.27 1.85,-1.28 2.07,-0.47 1.39,-0.55 1.97,-0.47 -0.82,-2.08 -0.92,-1.51 -2.78,-1.38 2.55,0.7 1.15,0.92 1.4,1.73 2.07,0.7 2.43,-0.35 2.87,-1.04 3.01,-1.04 2.42,-0.46 0.93,-0.69 1.15,-0.57 1.27,0.34 0.8,-0.7 1.28,-1.38 0.69,-1.39 0.23,-0.57 -0.34,-0.92 1.38,0.56 0.69,0 -0.23,-0.68 1.85,0.92 1.84,0 2.18,-0.92 1.51,-0.82 2.42,0.25 1.39,-0.35 1.05,-0.69 2.88,0.22 2.77,0.34 1.84,-0.11 2.31,-0.92 4.27,-2.07 1.27,-0.24 0.92,-0.92 3.92,-2.2 3,-1.14 5.2,0 1.61,-0.46 1.06,-0.93 0.56,-1.51 1.28,-2.3 0.45,-2.77 -0.81,-3.23 -2.76,-3.35 -4.15,-3.12 -3.24,-1.38 -3.7,-3.69 -2.76,-2.31 -1.39,0 -1.5,-1.39 0,-0.8 -0.23,-0.82 0.46,-1.27 -0.81,-1.04 0.23,-1.61 0.58,-2.07 -0.81,-1.04 -0.46,-1.97 -0.24,-2.3 -1.15,-0.46 -1.38,-1.05 -0.22,-2.43 -1.51,-1.61 -2.42,-1.5 -1.5,-1.63 -0.57,-1.14 -2.54,-0.58 -1.51,-1.15 -2.53,-0.46 -6.35,0.35 -3.01,-0.57 -2.3,-0.47 -0.46,-0.8 -1.73,0.33 -2.2,0 -3.57,-0.69 -3.12,-0.68 -0.69,-0.81 -2.07,-0.57 -0.7,-0.81 0.33,-0.48 -0.56,-0.68 0.8,-1.48 0.13,-1.3 -1.05,-0.79 -1.85,0 -0.7,-0.7 -1.72,-0.46 -2.55,-2.07 -1.95,-0.23 0.22,0.45 1.17,0.23 0.45,0.81 -1.04,0 -0.92,0.11 -1.27,-1.15 -0.92,-0.11 -1.15,-0.34 0.8,-0.7 -1.38,0 -0.58,-1.39 -1.5,-0.1 -2.65,-0.82 -4.15,-0.11 -2.2,0.93 -2.77,0.1 -2.31,0.91 -3.57,0.93 3.57,-1.72 -0.81,-0.12 1.28,-0.69 1.38,-0.45 0.46,-0.71 -2.19,-0.68 -4.27,0.23 -5.89,1.38 -4.96,0.92 0.81,-0.58 0.91,-0.8 -4.71,1.28 -4.86,1.37 3.58,-2.19 2.03,-3.37 c -8.59,2.49 -15.74,5.04 -21.47,7.67 l -6.07,4.59 -4.27,1.83 -2.3,1.63 1.61,-0.46 -3.92,2.77 -2.55,1.83 0.47,0.13 -0.23,0.91 -0.24,2.43 -1.95,2.54 -1.72,1.85 0,0.92 -0.82,1.5 -0.46,1.16 0,0.68 0.33,0.59 -0.68,0.91 0.12,1.27 -0.93,1.51 0.47,0.35 -1.27,2.29 -0.35,1.63 -0.58,0.47 -0.46,0.8 0.81,0.46 -0.7,1.5 0,1.85 -0.45,1.04 -1.05,1.5 0,1.27 -1.84,3.23 -0.23,1.04 -2.43,1.73 -2.3,1.96 -1.5,1.61 -5.66,3.93 -3.8,2.42 -0.93,1.39 -1.16,0.57 -2.99,2.08 -1.16,1.51 -2.77,2.76 -1.95,2.66 0,1.02 -2.9,3.83 -1.49,2.53 -2.55,3.24 -1.38,2.42 -2.31,3.81 -2.89,5.54 -2.08,3.45 -3.11,5.32 -2.65,2.31 -1.38,2.66 0.69,0.44 -1.4,2.09 -0.45,1.73 0.23,1.38 1.5,1.4 2.66,0 0.34,1.25 -0.93,0.14 -1.49,1.83 -1.51,2.42 0.12,1.26 -0.23,1.06 0,1.61 1.27,0 0.46,1.62 0.81,1.03 0.69,2.42 1.16,0.12 1.61,-0.34 1.38,0.58 0,1.27 1.16,0.34 0,1.49 1.27,0.37 1.38,-0.48 0.93,0.23 1.39,1.63 1.03,0.45 -0.8,1.38 -0.58,1.63 0.46,0.34 0.23,1.49 0,1.74 0.35,0.93 0,2.65 0.11,2.08 -1.15,2.76 -1.62,1.84 -0.57,2.67 0.46,1.02 -0.24,1.27 -2.18,2.89 -1.75,1.4 -1.26,-1.05 -1.27,-0.35 -1.39,0.13 0.48,-1.85 1.03,-2.2 -1.03,0.11 -1.28,0 -1.5,0.58 0.58,0.6 -0.35,1.48 -0.8,0.47 -1.27,1.15 -0.12,1.38 -1.51,1.26 -2.53,2.2 -1.85,1.62 -2.08,3.81 -2.07,4.15 -0.93,2.31 -0.22,-0.92 -0.7,-0.59 -0.35,0.93 -1.5,2.89 0.46,1.38 0.24,1.85 -1.39,4.04 -1.84,4.62 -1.51,3.81 0.92,0.1 -1.03,1.62 -0.58,-0.34 -2.19,1.72 -1.38,2.21 -2.66,3.11 -1.28,2.54 -1.14,0.82 -2.31,2.53 -1.5,4.85 -1.27,4.15 -2.08,5.31 -1.74,2.42 -2.76,0.69 -1.72,0.58 -1.97,2.99 -1.38,2.55 -2.66,5.07 -1.27,2.66 -2.77,7.15 -0.8,3.36 -1.17,2.42 -1.61,2.54 -0.11,2.07 -0.12,2.31 -1.05,3.01 -0.11,3.11 0,2.89 0.47,1.5 0.57,0 0.12,1.39 1.04,0.56 0.58,1.4 0,2.3 0.68,1.62 0.12,5.08 0.24,6.58 -0.12,5.18 -0.12,6 0.24,1.74 0.92,1.5 0.35,1.73 -0.59,1.39 0.59,0.92 -0.12,1.84 0.23,2.19 0.57,1.04 -0.22,1.5 0.46,4.97 0,1.61 -0.24,0.93 0.59,0.81 0.92,2.07 1.73,4.96 0.58,3.35 0.69,4.05 -0.12,0.91 -0.92,-0.68 -0.92,-1.04 -0.12,-2.44 -1.84,-1.94 -1.16,-2.09 0.23,-3 -1.04,-2.65 -0.34,-2.89 -0.69,-2.31 -1.05,-4.5 -0.57,-4.73 -0.92,-2.08 -0.47,-3.46 -0.46,-2.43 -0.92,-1.15 -0.35,-1.51 0.47,-0.68 0.22,-0.8 -0.45,-4.16 -0.46,-1.61 -1.51,-0.12 0.34,1.73 0.35,3.58 0.12,4.95 -0.23,3.82 0.69,0.92 1.27,1.61 0.57,4.85 0,7.85 0.47,3.12 0.23,-0.93 0.81,-0.8 0.46,1.26 1.16,3.01 0.92,5.2 0.92,4.26 1.73,4.5 1.62,4.15 1.84,4.16 1.51,4.27 0.33,3.24 0.12,1.49 0.11,3.11 -0.23,1.85 0.48,1.15 1.27,1.96 1.37,3.59 1.74,3.69 2.31,3.46 1.61,2.89 0,0.92 1.61,2.89 1.62,3.11 1.15,1.03 1.04,2.09 1.27,2.07 1.74,0.94 2.54,2.18 1.62,2.19 1.02,1.04 4.39,3.46 5.55,4.27 2.88,2.2 3.69,3.8 1.97,2.2 1.14,1.04 z m 78.28,36.19 0.43,0.92 -2.5,1.76 -2.62,2.78 -0.31,-0.73 0.21,-1.17 0.95,-0.88 0.38,-1.2 -1.13,-1.23 -0.54,0.43 0.02,1.16 -0.9,-0.81 -3.02,0.45 -0.5,-2.22 1.41,0.08 2.3,-0.72 -1.09,-0.65 -2.07,0.44 -0.72,-0.05 0.46,-0.45 1.92,-0.88 1.5,1.02 0.95,-0.36 0.26,-0.66 -0.74,-0.84 2.83,0.18 0.48,0.61 1.41,0.29 -1.3,0.42 -0.8,1.63 0.5,0.84 1.3,0.14 0.93,-0.3 z m -11.76,-23.11 c 0,0 0.19,1.69 0.03,1.85 -0.13,0.15 -1.65,1.1 -1.65,1.1 l -0.35,-0.76 -2.45,0.68 -1.56,0.54 -0.33,0.83 0.9,1.53 c 0,0 -0.3,0.89 -0.3,1.01 0,0.11 0.72,2.37 0.72,2.37 0,0 -2.43,-3.96 -2.5,-3.96 -0.08,0 -1.53,0.67 -1.53,0.67 l -1.79,-0.37 -0.76,0.76 -1.37,-1.29 0.06,-1.25 1.57,-1.03 0.96,-0.88 1.22,0.84 0.98,-0.76 0.45,-0.57 0.52,1.52 0.93,0.04 1.18,-0.68 -0.07,-0.58 c 0,0 1.29,0.05 1.36,0.12 0.07,0.07 0.59,0.46 0.59,0.46 l 0.76,-0.53 -0.18,-0.49 0.9,0 0.53,-0.56 0.08,0.89 1.1,-1.5 z m -29.35,-59.18 1.96,0.75 1.32,2.47 1.68,3.7 2.08,4.04 0.76,1.78 0.34,1.74 -0.64,1.38 -1.39,-0.17 -1.45,-1.8 0.07,-1.44 -1.84,-0.92 0.11,-1.5 -0.18,-1.21 -0.69,-1.21 1.15,-0.17 0.13,-1.39 -0.7,-1.44 0.57,-0.53 -0.73,-1.26 -1.11,-0.7 -0.8,-0.05 -1.17,-1.67 0.53,-0.4 z m 13.7,-35.07 0.87,1.36 0.18,1.75 1.02,2.08 0,1.28 -2.07,0.44 0.4,1.21 0.08,1.99 0.47,1.59 -1.67,1.44 -1.99,1 -1.97,-0.21 -2.31,0.29 -4.27,-0.08 -3.35,-0.7 -1.91,-1.03 1.91,-0.39 2.14,-0.72 -0.63,-0.63 -1.27,-0.49 1.43,-1.43 1.99,0.25 1.09,-0.41 2.16,0.16 1.75,0.07 0.39,-0.39 -1.19,-0.73 -0.63,-1.31 0.88,-1.35 -0.41,-0.89 1.11,-1.51 2.24,-0.24 1.48,-0.96 1.52,-0.79 0.56,-0.65 z m -18.49,-17.21 2.6,0.72 2.47,2.28 0.95,3.35 1.84,3.4 2.52,1.68 1.84,0.8 2.22,0.86 c 0,0 0.57,0.73 0.72,0.73 0.17,0 1.17,-0.8 1.17,-0.8 l 0.81,-1.99 0.63,-1.28 -1.03,-2.84 -1.81,-1.91 -0.16,-1.28 1.17,-0.16 1.11,-0.48 -0.31,-1.72 -1.18,-1.6 -0.47,-1.6 2.05,0.24 1.91,1.6 1.43,2.68 1.44,0.57 0.16,1.5 0.39,1.6 0.57,-0.32 0.22,-1.67 0.79,-2.39 1.1,-0.08 1.36,2.24 -0.71,2.07 c 0,0 0.48,1.82 0.32,1.99 -0.16,0.15 -1.6,1.4 -1.6,1.4 l -0.96,-0.16 -1.01,-1.49 -0.47,1.33 -1.44,1.84 -1.67,1.98 -1.61,1.21 -2.35,1.11 -1.75,0.96 -1.85,0.28 -0.94,0.16 -2.69,-1 -1.91,-1.44 1.99,0.4 2.84,1.13 -3,-1.46 -2.39,-1.98 -2.08,-2.47 -1.19,-1.25 -1.24,-2.54 -1.51,-2.07 0,-1.77 0.07,-1.8 0.64,-0.56 z m 24.6,-7.94 c -0.25,0 -2.6,1.11 -2.76,1.11 -0.17,0 -1.52,0.73 -1.52,0.73 l -0.16,-0.41 -1.43,0.32 -1.2,1.17 c 0,0 -1.72,-0.56 -1.89,-0.56 -0.16,0 -1.42,-0.13 -1.42,-0.13 l -2.4,-0.09 -1.5,0.7 -1.06,-0.85 1.21,-1.44 1.67,-1.52 3.64,-0.47 5.83,0.17 2.99,1.27 z m 9.7,0.07 0.09,1.52 -0.57,1.08 -1.52,0 -0.32,-0.53 -2.04,1.34 -1.75,0.63 -1.75,0.41 -1.76,-0.25 -1.73,-0.39 -0.4,-0.72 1.58,-0.64 1.83,-0.53 1.51,-0.09 1.68,-1.27 2.59,-1.36 1.84,0.33 0.72,0.47 z m -25.13,-155.69 -0.26,-1.12 -2,-1.3 -0.19,-0.75 1.55,-2.74 0.6,-1.24 1.93,0.62 0.03,2.41 -1.04,2.45 -0.62,1.67 z m 328.57,165.22 0.57,-0.97 0.47,-1.56 0.52,-1.51 0.88,-0.29 0.51,-0.4 c 0,0 0.05,-1.04 0.05,-1.44 0,-0.41 0.3,-0.8 0.3,-0.8 l -0.75,-0.53 -0.87,-0.51 -0.64,0.4 -0.86,-0.18 -1.21,-0.35 -1.61,0.18 -1.28,0 -0.63,-0.58 -0.98,0.29 -0.3,0.81 c 0,0 -0.22,0.8 -0.28,0.99 -0.06,0.16 0.81,0.57 0.81,0.57 l 0.19,1.04 0.74,0.63 1.14,-0.22 1.45,0.91 0.47,0.81 0.45,1.27 0.86,1.44"
           id="path28"
           style="fill:#476a10;fill-opacity:1;fill-rule:nonzero;stroke:none" /></g><path
         d="m 78.587958,205.53177 c -1.159307,0.19845 -1.725666,0.55764 -2.071981,1.31409 -0.317661,0.69386 -0.326804,0.8479 -0.306498,5.16341 l 0.01874,3.98189 0.140155,0.41856 c 0.325839,0.97307 0.861695,1.49462 1.781874,1.73429 0.406597,0.10591 1.486452,0.11886 1.944553,0.0233 1.01855,-0.21241 1.653925,-0.85598 1.87506,-1.89927 0.131265,-0.61929 0.124213,-7.96035 -0.0083,-8.60171 -0.218999,-1.06025 -0.763806,-1.70547 -1.678635,-1.98803 -0.360254,-0.11127 -1.384035,-0.19979 -1.695002,-0.14657 z m 1.075517,1.47692 c 0.185322,0.098 0.30912,0.22752 0.442906,0.4634 l 0.185689,0.32737 0,4.03606 c 0,4.43877 0.01028,4.30732 -0.369827,4.72806 -0.384605,0.42571 -1.134114,0.44493 -1.557169,0.0399 -0.409003,-0.39154 -0.404947,-0.34409 -0.404947,-4.73809 0,-4.30869 -0.0073,-4.21208 0.34903,-4.61792 0.347197,-0.39544 0.880348,-0.48944 1.354318,-0.2388 z m 82.479035,-1.45155 c -0.72527,0.10629 -1.33584,0.42852 -1.6345,0.86261 -0.31431,0.45684 -0.36717,0.73404 -0.34865,1.82817 l 0.0167,0.98658 0.83711,0 0.83711,0 0.0299,-0.8371 c 0.0248,-0.69402 0.0503,-0.87182 0.14949,-1.04014 0.1865,-0.31664 0.40102,-0.44393 0.79145,-0.46965 0.49307,-0.0325 0.8303,0.14842 1.03112,0.55309 0.13221,0.26645 0.14778,0.37052 0.14306,0.9567 -0.009,1.09019 -0.14439,1.32794 -1.65071,2.89351 -1.15182,1.19712 -1.51804,1.65247 -1.8093,2.24963 -0.28046,0.57505 -0.38734,1.07804 -0.38734,1.82279 0,1.61937 0.61995,2.53429 1.89961,2.80344 0.45064,0.0948 1.4201,0.0827 1.82496,-0.0227 0.74226,-0.19334 1.27048,-0.60601 1.48083,-1.15689 0.11059,-0.28963 0.13024,-0.47143 0.13675,-1.26503 l 0.008,-0.9268 -0.80721,0 -0.80721,0 -0.0307,0.74742 c -0.0347,0.84275 -0.11289,1.0659 -0.43367,1.2374 -0.28039,0.14991 -0.89215,0.13761 -1.10663,-0.0223 -0.33488,-0.24961 -0.40214,-0.45783 -0.40214,-1.24504 0,-0.66189 0.0127,-0.74302 0.16361,-1.04639 0.23778,-0.47794 0.59659,-0.931 1.55559,-1.9642 1.70418,-1.83602 2.02001,-2.44651 2.01535,-3.89555 -0.004,-1.45059 -0.4578,-2.38771 -1.35977,-2.81212 -0.52445,-0.24676 -1.40939,-0.34484 -2.14235,-0.23741 z m 6.3979,0 c -0.72527,0.10629 -1.33585,0.42852 -1.6345,0.86261 -0.31432,0.45684 -0.36718,0.73404 -0.34865,1.82817 l 0.0167,0.98658 0.83711,0 0.8371,0 0.0299,-0.8371 c 0.0248,-0.69402 0.0503,-0.87182 0.14949,-1.04014 0.1865,-0.31664 0.40102,-0.44393 0.79146,-0.46965 0.49307,-0.0325 0.8303,0.14842 1.03111,0.55309 0.13222,0.26645 0.14778,0.37052 0.14307,0.9567 -0.009,1.09019 -0.14439,1.32794 -1.65072,2.89351 -1.15182,1.19712 -1.51804,1.65247 -1.80929,2.24963 -0.28047,0.57505 -0.38735,1.07804 -0.38735,1.82279 0,1.61937 0.61995,2.53429 1.89961,2.80344 0.45065,0.0948 1.4201,0.0827 1.82497,-0.0227 0.74225,-0.19334 1.27047,-0.60601 1.48082,-1.15689 0.1106,-0.28963 0.13025,-0.47143 0.13675,-1.26503 l 0.008,-0.9268 -0.80722,0 -0.80721,0 -0.0307,0.74742 c -0.0347,0.84275 -0.11288,1.0659 -0.43366,1.2374 -0.2804,0.14991 -0.89216,0.13761 -1.10663,-0.0223 -0.33488,-0.24961 -0.40214,-0.45783 -0.40214,-1.24504 0,-0.66189 0.0127,-0.74302 0.16361,-1.04639 0.23777,-0.47794 0.59658,-0.931 1.55559,-1.9642 1.70417,-1.83602 2.02001,-2.44651 2.01535,-3.89555 -0.004,-1.45059 -0.4578,-2.38771 -1.35978,-2.81212 -0.52444,-0.24676 -1.40938,-0.34484 -2.14234,-0.23741 z m -85.200478,0.1327 c -0.01607,0.0421 -0.02228,2.86153 -0.01381,6.26527 l 0.0154,6.18862 1.152011,0.0162 c 1.150222,0.0162 1.152088,0.0161 1.201785,-0.11959 0.02737,-0.0747 0.489796,-2.37584 1.027601,-5.11363 0.537806,-2.7378 0.999138,-4.9778 1.025185,-4.9778 0.02604,0 0.05423,2.29382 0.06264,5.09739 l 0.01529,5.09739 0.777314,0 0.777314,0 0,-6.24842 0,-6.24841 -1.211533,-0.0161 c -1.210306,-0.0162 -1.211591,-0.0161 -1.267773,0.11958 -0.03093,0.0747 -0.47661,2.34216 -0.990397,5.03884 -0.513786,2.69668 -0.948938,4.97705 -0.967006,5.06749 -0.01807,0.0904 -0.05625,0.16444 -0.08483,0.16444 -0.02894,0 -0.05877,-2.29972 -0.06727,-5.18708 l -0.01528,-5.18708 -0.703717,-0.0169 c -0.529756,-0.0127 -0.710939,0.002 -0.732928,0.0598 z m 7.413922,8.8e-4 c -0.01581,0.0415 -0.02182,2.86033 -0.01335,6.26407 l 0.0154,6.18862 2.331943,0 2.331943,0 0,-0.71753 0,-0.71752 -1.464939,-0.0299 -1.464938,-0.0299 0,-1.91339 0,-1.91339 1.375248,-0.0299 1.375249,-0.0299 0,-0.71753 0,-0.71752 -1.375249,-0.0299 -1.375248,-0.0299 0,-2.09278 0,-2.09276 1.464938,-0.0299 1.464939,-0.0299 0,-0.68762 0,-0.68762 -2.318601,-0.0156 c -1.822896,-0.0123 -2.324748,4.8e-4 -2.34735,0.0598 z m 8.670428,-8.8e-4 c -0.016,0.042 -0.0222,2.86132 -0.0137,6.26506 l 0.0154,6.18861 1.464938,0.017 c 1.5643,0.0181 2.49039,-0.0442 2.93786,-0.19754 0.59676,-0.20457 0.98998,-0.75816 1.12463,-1.58332 0.1767,-1.08275 0.12619,-3.21248 -0.0938,-3.95311 -0.30053,-1.01201 -0.84322,-1.29308 -2.62336,-1.35872 l -1.07629,-0.0397 -0.0299,-2.6907 -0.0299,-2.69071 -0.82339,-0.0167 c -0.625708,-0.0126 -0.830378,0.002 -0.852508,0.0598 z m 3.407858,6.94797 c 0.11552,0.0483 0.2451,0.16566 0.29996,0.27176 0.28085,0.54307 0.27033,2.9414 -0.0151,3.43133 -0.15915,0.27323 -0.43717,0.34456 -1.26475,0.32454 l -0.69234,-0.0168 -0.0158,-1.97273 c -0.009,-1.085 -0.003,-2.00657 0.0131,-2.04793 0.0426,-0.1111 1.4046,-0.10315 1.67488,0.01 z m 3.28863,-6.94699 c -0.0158,0.0415 -0.0218,2.86034 -0.0133,6.26408 l 0.0154,6.18861 0.8371,0 0.83711,0 0.0299,-5.53089 0.0299,-5.53089 1.43505,-0.0299 1.43504,-0.0299 0,-0.68763 0,-0.68762 -2.2887,-0.0157 c -1.79897,-0.0123 -2.29485,4.8e-4 -2.31745,0.0598 z m 5.07773,0.0117 c -0.0308,0.0802 2.62889,12.30008 2.70336,12.42058 0.017,0.0277 0.46057,0.0502 0.98552,0.0502 0.93268,0 0.95577,-0.003 1.01265,-0.13453 0.10027,-0.23175 2.52147,-12.24706 2.48635,-12.33859 -0.0273,-0.0713 -0.18056,-0.0839 -0.85424,-0.0703 l -0.8209,0.0167 -0.27156,1.50738 c -0.14935,0.82906 -0.30035,1.53591 -0.33553,1.57077 -0.0422,0.0418 -0.50965,0.0579 -1.37262,0.0473 l -1.30863,-0.0161 -0.27544,-1.55463 -0.27544,-1.55463 -0.81966,-0.0167 c -0.68192,-0.0138 -0.8254,-0.002 -0.85386,0.0725 z m 4.66008,4.62296 c 0.0145,0.0247 -0.17086,1.14803 -0.41193,2.49637 -0.24106,1.34835 -0.46927,2.63451 -0.50711,2.85815 -0.0406,0.24017 -0.0953,0.39777 -0.1336,0.38502 -0.0618,-0.0206 -1.04982,-5.27715 -1.05633,-5.61996 l -0.004,-0.16443 1.04285,0 c 0.57358,0 1.05474,0.0202 1.06924,0.0448 z m 3.4172,-4.6359 c -0.0161,0.0421 -0.0223,2.86153 -0.0138,6.26527 l 0.0154,6.18862 1.15201,0.0162 c 1.15022,0.0162 1.15209,0.0161 1.20178,-0.11958 0.0274,-0.0747 0.4898,-2.37585 1.0276,-5.11364 0.53781,-2.73779 0.99915,-4.9778 1.02519,-4.9778 0.0261,0 0.0542,2.29382 0.0626,5.09739 l 0.0153,5.09739 0.77732,0 0.77732,0 0,-6.24841 0,-6.24842 -1.21154,-0.0162 c -1.2103,-0.0161 -1.21159,-0.0161 -1.26777,0.11958 -0.031,0.0747 -0.47661,2.34216 -0.99039,5.03884 -0.51379,2.69669 -0.94895,4.97705 -0.96701,5.06749 -0.0181,0.0905 -0.0562,0.16444 -0.0848,0.16444 -0.0289,0 -0.0587,-2.29972 -0.0673,-5.18708 l -0.0153,-5.18708 -0.70372,-0.0169 c -0.52975,-0.0127 -0.71094,0.002 -0.73292,0.0598 z m 7.35412,8.8e-4 c -0.0158,0.0415 -0.0218,2.86033 -0.0133,6.26407 l 0.0154,6.18862 2.33194,0 2.33195,0 0,-0.71753 0,-0.71751 -1.46494,-0.0299 -1.46494,-0.0299 0,-1.91339 0,-1.91339 1.37525,-0.0299 1.37524,-0.0299 0,-0.71753 0,-0.71752 -1.37524,-0.0299 -1.37525,-0.0299 0,-2.09277 0,-2.09277 1.46494,-0.0299 1.46494,-0.0299 0,-0.68763 0,-0.68762 -2.3186,-0.0156 c -1.8229,-0.0123 -2.32475,4.8e-4 -2.34736,0.0598 z m 7.05633,-8.8e-4 c -0.0159,0.0421 -0.0355,2.52498 -0.0437,5.51764 l -0.0148,5.4412 -1.01649,0.0299 -1.01649,0.0299 0,0.71752 0,0.71753 2.89998,0 2.89998,0 0,-0.71753 0,-0.71752 -0.98659,-0.0299 -0.98659,-0.0299 -0.0299,-5.501 -0.0299,-5.50099 -0.82338,-0.0167 c -0.62584,-0.0126 -0.8303,0.002 -0.85219,0.0598 z m 7.71303,0 c -0.0161,0.0421 -0.0222,2.86132 -0.0138,6.26506 l 0.0154,6.18862 1.46494,0.0169 c 1.5643,0.0181 2.49039,-0.0442 2.93786,-0.19754 0.59676,-0.20457 0.98997,-0.75816 1.12463,-1.58332 0.17669,-1.08275 0.12617,-3.21248 -0.0938,-3.95311 -0.30053,-1.01201 -0.84322,-1.29308 -2.62336,-1.35872 l -1.07629,-0.0397 -0.0299,-2.6907 -0.0299,-2.6907 -0.82339,-0.0167 c -0.62571,-0.0126 -0.83038,0.002 -0.85251,0.0598 z m 3.40786,6.94797 c 0.11553,0.0483 0.2451,0.16566 0.29997,0.27175 0.28084,0.54309 0.27032,2.94142 -0.0151,3.43134 -0.15914,0.27323 -0.43717,0.34457 -1.26475,0.32453 l -0.69234,-0.0168 -0.0158,-1.97272 c -0.009,-1.08501 -0.003,-2.00658 0.0131,-2.04793 0.0427,-0.1111 1.40459,-0.10315 1.67487,0.01 z m 3.34879,-6.94797 c -0.016,0.0421 -0.0222,2.86132 -0.0137,6.26506 l 0.0154,6.18862 1.82369,-0.004 c 1.51952,-0.003 1.88853,-0.0208 2.21237,-0.10581 0.66956,-0.1759 1.04354,-0.52333 1.22811,-1.14086 0.13887,-0.46465 0.21745,-1.98473 0.14713,-2.84557 -0.0931,-1.13954 -0.34486,-1.58291 -1.11257,-1.95943 -0.17736,-0.087 -0.32247,-0.17755 -0.32247,-0.20125 0,-0.0237 0.14787,-0.0861 0.32859,-0.13863 0.40011,-0.1163 0.72606,-0.39057 0.89139,-0.75006 0.1159,-0.25198 0.12656,-0.42097 0.16784,-2.66081 0.0242,-1.31545 0.0516,-2.459 0.0606,-2.54122 l 0.0165,-0.14948 -0.79458,-0.0167 -0.79459,-0.0167 -0.10082,0.22597 c -0.0865,0.19383 -0.10529,0.53643 -0.13221,2.40844 -0.0279,1.93622 -0.0433,2.20427 -0.13705,2.37578 -0.174,0.31839 -0.40276,0.40065 -1.12011,0.40276 l -0.62783,0.002 -0.0299,-2.6907 -0.0299,-2.69071 -0.82338,-0.0167 c -0.62571,-0.0126 -0.83038,0.002 -0.85251,0.0598 z m 3.24222,7.01717 c 0.36021,0.26337 0.4051,0.46218 0.42416,1.8788 0.0267,1.98523 -0.0185,2.06287 -1.20238,2.06287 l -0.7283,0 -0.0158,-1.97273 c -0.009,-1.085 -0.002,-2.00953 0.0156,-2.05452 0.0247,-0.0642 0.17165,-0.077 0.6852,-0.0594 0.54209,0.0186 0.68247,0.0433 0.82151,0.14499 z m 3.51406,-7.01618 c -0.0158,0.0415 -0.0218,2.86033 -0.0133,6.26407 l 0.0154,6.18862 2.33195,0 2.33194,0 0,-0.71753 0,-0.71752 -1.46493,-0.0299 -1.46495,-0.0299 0,-1.91339 0,-1.91339 1.37525,-0.0299 1.37525,-0.0299 0,-0.71752 0,-0.71752 -1.37525,-0.0299 -1.37525,-0.0299 0,-2.09278 0,-2.09276 1.46495,-0.0299 1.46493,-0.0299 0,-0.68762 0,-0.68763 -2.31861,-0.0156 c -1.82288,-0.0123 -2.32473,4.8e-4 -2.34733,0.0598 z"
         id="path3112"
         style="fill:#476a10" /></g></g></svg>